<svg width="685" height="500" viewBox="0 0 685 500" fill="none" xmlns="http://www.w3.org/2000/svg">
<g clip-path="url(#clip0)">
<path d="M428.861 35.2113H288.714C286.234 35.2113 284.223 37.2222 284.223 39.7028V50.6038C284.223 53.0844 286.234 55.0953 288.714 55.0953H428.861C431.342 55.0953 433.353 53.0844 433.353 50.6038V39.7028C433.353 37.2222 431.342 35.2113 428.861 35.2113Z" fill="#BF211E"/>
<path d="M644.271 0.414246H270.487C268.007 0.414246 265.996 2.42517 265.996 4.90576V435.856C265.996 438.337 268.007 440.348 270.487 440.348H644.271C646.752 440.348 648.763 438.337 648.763 435.856V4.90576C648.763 2.42517 646.752 0.414246 644.271 0.414246Z" stroke="#3F3D56" stroke-miterlimit="10"/>
<path d="M433.004 29.4118H292.857C290.376 29.4118 288.365 31.4227 288.365 33.9033V44.8043C288.365 47.2849 290.376 49.2958 292.857 49.2958H433.004C435.484 49.2958 437.495 47.2849 437.495 44.8043V33.9033C437.495 31.4227 435.484 29.4118 433.004 29.4118Z" stroke="#3F3D56" stroke-miterlimit="10"/>
<path d="M598.29 102.32H308.184C305.703 102.32 303.692 104.331 303.692 106.811V107.77C303.692 110.251 305.703 112.262 308.184 112.262H598.29C600.77 112.262 602.781 110.251 602.781 107.77V106.811C602.781 104.331 600.77 102.32 598.29 102.32Z" fill="#F2F2F2"/>
<path d="M598.704 133.803H308.598C306.118 133.803 304.107 135.814 304.107 138.294V139.253C304.107 141.734 306.118 143.745 308.598 143.745H598.704C601.184 143.745 603.195 141.734 603.195 139.253V138.294C603.195 135.814 601.184 133.803 598.704 133.803Z" fill="#F2F2F2"/>
<path d="M599.118 165.286H309.012C306.532 165.286 304.521 167.297 304.521 169.777V170.736C304.521 173.217 306.532 175.228 309.012 175.228H599.118C601.599 175.228 603.61 173.217 603.61 170.736V169.777C603.61 167.297 601.599 165.286 599.118 165.286Z" fill="#F2F2F2"/>
<path d="M602.432 98.1773H312.326C309.846 98.1773 307.835 100.188 307.835 102.669V103.628C307.835 106.108 309.846 108.119 312.326 108.119H602.432C604.913 108.119 606.924 106.108 606.924 103.628V102.669C606.924 100.188 604.913 98.1773 602.432 98.1773Z" stroke="#3F3D56" stroke-miterlimit="10"/>
<path d="M602.846 129.66H312.741C310.26 129.66 308.249 131.671 308.249 134.152V135.111C308.249 137.591 310.26 139.602 312.741 139.602H602.846C605.327 139.602 607.338 137.591 607.338 135.111V134.152C607.338 131.671 605.327 129.66 602.846 129.66Z" stroke="#3F3D56" stroke-miterlimit="10"/>
<path d="M603.261 161.143H313.155C310.674 161.143 308.663 163.154 308.663 165.635V166.594C308.663 169.074 310.674 171.085 313.155 171.085H603.261C605.741 171.085 607.752 169.074 607.752 166.594V165.635C607.752 163.154 605.741 161.143 603.261 161.143Z" stroke="#3F3D56" stroke-miterlimit="10"/>
<path d="M505.129 255.592H403.83C402.761 255.592 401.735 256.017 400.979 256.773C400.223 257.529 399.798 258.555 399.798 259.624V273.102C399.798 274.171 400.223 275.196 400.979 275.953C401.735 276.709 402.761 277.133 403.83 277.133H409.326V345.596C409.326 346.665 409.751 347.69 410.507 348.446C411.263 349.202 412.289 349.627 413.358 349.627H489.802C490.871 349.627 491.896 349.202 492.652 348.446C493.409 347.69 493.833 346.665 493.833 345.596V277.133H505.129C506.198 277.133 507.224 276.709 507.98 275.953C508.736 275.196 509.161 274.171 509.161 273.102V259.624C509.161 258.555 508.736 257.529 507.98 256.773C507.224 256.017 506.198 255.592 505.129 255.592V255.592Z" fill="#F2F2F2"/>
<path d="M417.611 272.991H502.118V338.488C502.118 340.563 501.294 342.554 499.826 344.021C498.359 345.489 496.369 346.313 494.293 346.313H425.436C423.361 346.313 421.371 345.489 419.903 344.021C418.436 342.554 417.611 340.563 417.611 338.488V272.991Z" stroke="#3F3D56" stroke-miterlimit="10"/>
<path d="M508.586 251.45H411.972C408.452 251.45 405.598 254.303 405.598 257.823V266.617C405.598 270.137 408.452 272.991 411.972 272.991H508.586C512.106 272.991 514.96 270.137 514.96 266.617V257.823C514.96 254.303 512.106 251.45 508.586 251.45Z" stroke="#3F3D56" stroke-miterlimit="10"/>
<path d="M465.25 254.35H444.952V346.313H465.25V254.35Z" fill="#BB8A35"/>
<path d="M468.564 251.45H451.994V345.899H468.564V251.45Z" stroke="#3F3D56" stroke-miterlimit="10"/>
<path d="M127.743 57.6567C127.743 57.6567 144.487 89.1356 141.808 105.88C139.129 122.624 136.45 137.359 141.808 145.396C147.166 153.433 113.008 144.056 113.008 144.056V97.1728L127.743 57.6567Z" fill="#272727"/>
<path d="M163.575 142.382C163.575 142.382 123.055 187.591 110.329 176.205C97.6036 164.819 85.8828 137.693 95.2595 128.986C100.323 124.285 100.698 115.29 99.9746 108.003C99.5966 104.233 98.9157 100.499 97.9385 96.8379C97.9385 96.8379 118.031 90.81 118.701 102.866C118.747 104.283 119.121 105.669 119.793 106.918C123.631 113.729 136.115 110.233 136.115 110.233L163.575 142.382Z" fill="#FBBEBE"/>
<path d="M133.436 112.242L136.115 110.233C146.816 109.676 157.52 111.27 167.594 114.921C183.668 120.949 211.798 126.307 219.835 124.298C227.872 122.289 247.296 118.27 247.296 118.27C247.296 118.27 268.728 109.563 273.416 120.28C278.105 130.996 244.617 130.996 244.617 130.996C244.617 130.996 220.84 140.707 204.096 139.368C187.352 138.028 165.585 145.731 155.538 137.693C145.492 129.656 133.436 112.242 133.436 112.242Z" fill="#FBBEBE"/>
<path d="M53.7342 368.092H35.6506L28.953 381.487L37.6599 390.864C37.6599 390.864 54.404 388.854 59.0923 383.496C63.7806 378.138 53.7342 368.092 53.7342 368.092Z" fill="#FBBEBE"/>
<path d="M50.9593 368.092C50.9593 368.092 58.4225 364.743 53.7342 360.724C49.0458 356.706 45.0272 351.348 37.6599 356.706C30.2925 362.064 -5.87471 389.524 0.822916 398.901C7.52055 408.278 9.52982 406.268 12.8786 404.259C16.2275 402.25 26.9437 394.213 35.6506 394.213C44.3575 394.213 41.0087 382.827 37.6599 379.478C34.311 376.129 48.1844 368.092 50.9593 368.092Z" fill="#272727"/>
<path d="M120.71 453.821L113.343 466.547L120.71 474.584H141.473C141.473 474.584 134.776 461.189 137.455 455.161C140.134 449.133 120.71 453.821 120.71 453.821Z" fill="#FBBEBE"/>
<path d="M141.473 463.198C141.473 463.198 134.106 471.235 129.417 469.896C124.729 468.556 116.579 460.958 116.579 460.958C116.579 460.958 104.636 472.575 109.994 477.933C115.352 483.291 136.785 493.337 142.813 497.356C148.84 501.375 168.933 498.695 168.264 494.007C167.594 489.319 157.547 483.961 152.859 477.933C148.171 471.905 141.473 463.198 141.473 463.198Z" fill="#272727"/>
<path d="M176.971 243.516C176.971 243.516 191.705 289.73 171.612 343.98C171.612 343.98 153.529 423.682 146.831 439.756C140.134 455.831 140.134 462.528 140.134 462.528C140.134 462.528 114.683 463.198 116.692 457.84C116.692 457.84 125.399 431.719 125.399 421.673C125.399 411.626 139.464 357.376 139.464 357.376L144.152 241.507L176.971 243.516Z" fill="#272727"/>
<path d="M173.622 246.865C173.622 246.865 173.622 268.297 159.557 277.674C159.557 277.674 170.273 352.687 156.878 366.752C143.482 380.817 121.38 374.789 121.38 374.789C121.38 374.789 84.5433 376.799 57.083 387.515C57.083 387.515 35.6506 381.487 53.0644 366.082C53.0644 366.082 74.4968 360.724 81.1945 356.036C87.8922 351.348 118.701 341.971 126.738 345.99C126.738 345.99 126.069 334.604 123.39 326.567C120.975 319.322 116.692 297.097 116.692 297.097C116.692 297.097 97.9386 261.6 116.692 242.846C135.445 224.093 173.622 246.865 173.622 246.865Z" fill="#333333"/>
<path opacity="0.1" d="M119.793 106.918C116.742 108.452 113.407 109.34 109.997 109.526C106.587 109.713 103.175 109.194 99.9746 108.003C99.5965 104.233 98.9156 100.499 97.9385 96.8379C97.9385 96.8379 118.031 90.81 118.701 102.866C118.747 104.283 119.121 105.669 119.793 106.918Z" fill="black"/>
<path d="M108.655 107.554C122.341 107.554 133.436 96.4591 133.436 82.7728C133.436 69.0866 122.341 57.9916 108.655 57.9916C94.9684 57.9916 83.8735 69.0866 83.8735 82.7728C83.8735 96.4591 94.9684 107.554 108.655 107.554Z" fill="#FBBEBE"/>
<path d="M107.315 175.2C107.315 175.2 135.445 195.293 122.72 216.725C109.994 238.158 114.013 250.214 114.013 250.214C114.013 250.214 138.124 250.214 146.161 255.572C154.199 260.93 179.65 251.553 179.65 251.553C179.65 251.553 183.668 224.763 178.31 212.037C172.952 199.312 170.273 179.219 172.282 175.2C174.291 171.181 179.65 152.428 166.924 141.712L159.679 137.82C159.679 137.82 164.245 157.116 133.436 145.061C133.436 145.061 126.738 184.577 107.315 175.2Z" fill="#BF211E"/>
<path d="M133.785 110.729L134.481 111.459L159.865 138.041L160.649 138.859L160.695 139.012L161.205 140.6L162.222 143.809L158.224 139.374L133.603 112.115L132.519 110.916L133.785 110.729Z" fill="#BF211E"/>
<path d="M135.562 147.098C135.562 147.098 114.683 128.987 99.9478 133.675C85.213 138.363 107.09 178.211 111.556 178.715L113.343 178.549C113.343 178.549 85.8828 145.061 101.287 135.014C101.287 135.014 120.71 137.024 135.445 149.079L135.562 147.098Z" fill="#BF211E"/>
<path d="M122.72 143.051L171.612 158.456L252.654 163.144C252.654 163.144 276.095 163.814 272.077 174.53C268.058 185.247 246.626 177.209 246.626 177.209L176.971 178.549C176.971 178.549 119.371 172.521 114.683 169.172C109.994 165.823 117.362 141.042 122.72 143.051Z" fill="#FBBEBE"/>
<path d="M101.287 103.535C101.287 103.535 98.6083 98.1774 103.966 92.1495C106.694 89.0808 109.075 82.5401 110.755 76.8581C111.528 74.2397 113.229 71.993 115.539 70.5389C117.85 69.0847 120.611 68.5228 123.306 68.9585C128.101 69.7325 133.158 69.9794 134.775 68.0381C138.124 64.0195 134.106 42.5871 107.985 47.2754C81.8642 51.9638 65.1201 41.2476 65.1201 66.6985C65.1201 92.1495 81.1944 99.5169 69.8085 124.968C58.4225 150.419 36.3203 153.098 49.0458 169.842C61.7713 186.586 95.2595 191.274 97.2688 185.247C99.278 179.219 89.2316 155.777 95.9292 146.4C102.627 137.024 114.013 126.977 110.664 120.949C107.315 114.921 101.287 103.535 101.287 103.535Z" fill="#272727"/>
<path d="M22.0023 499.586H283.808" stroke="#3F3D56" stroke-miterlimit="10"/>
<path d="M628.647 137.062C631.157 137.975 633.844 138.292 636.498 137.988C639.151 137.685 641.697 136.769 643.936 135.314C646.175 133.859 648.045 131.903 649.4 129.601C650.754 127.3 651.555 124.715 651.74 122.051C651.925 119.387 651.489 116.716 650.466 114.25C649.442 111.783 647.86 109.588 645.844 107.837C643.828 106.086 641.432 104.827 638.846 104.16C636.261 103.493 633.555 103.436 630.943 103.992L631.375 112.868L627.176 105.262C623.055 107.198 619.871 110.691 618.325 114.974C617.775 116.474 617.441 118.044 617.333 119.638C617.068 123.378 618.029 127.102 620.071 130.246C622.112 133.39 625.123 135.783 628.647 137.062V137.062Z" fill="#218352"/>
<path d="M649.424 239.998C647.941 232.45 654.364 225.759 660.709 221.409C667.053 217.06 674.466 212.786 676.631 205.405C679.742 194.797 670.475 185.082 663.262 176.705C657.911 170.487 653.316 163.658 649.572 156.359C648.072 153.432 646.693 150.373 646.298 147.108C645.729 142.405 647.24 137.726 648.762 133.241C653.832 118.3 659.253 103.483 665.024 88.7921" stroke="#3F3D56" stroke-miterlimit="10"/>
<path d="M629.357 134.777C631.867 135.69 634.554 136.007 637.208 135.703C639.861 135.4 642.407 134.484 644.646 133.029C646.885 131.574 648.756 129.618 650.11 127.316C651.464 125.015 652.265 122.43 652.45 119.766C652.635 117.102 652.199 114.432 651.176 111.965C650.153 109.498 648.571 107.303 646.554 105.552C644.538 103.801 642.142 102.543 639.556 101.875C636.971 101.208 634.265 101.151 631.654 101.708L632.085 110.583L627.886 102.977C623.765 104.913 620.581 108.406 619.035 112.689C618.485 114.189 618.152 115.759 618.043 117.353C617.778 121.093 618.739 124.817 620.781 127.961C622.822 131.105 625.833 133.498 629.357 134.777V134.777Z" stroke="#3F3D56" stroke-miterlimit="10"/>
<path d="M647.316 85.7271C648.301 83.0095 649.954 80.5835 652.123 78.6726C654.292 76.7618 656.907 75.4275 659.727 74.7929L661.147 83.2301L663.779 74.3688C667.434 74.423 670.976 75.6372 673.896 77.8361C676.816 80.0351 678.961 83.105 680.022 86.6026C681.083 90.1002 681.005 93.8445 679.8 97.295C678.594 100.745 676.323 103.723 673.314 105.799C670.306 107.875 666.716 108.941 663.062 108.843C659.408 108.745 655.88 107.489 652.987 105.255C650.094 103.021 647.986 99.9261 646.966 96.4161C645.947 92.9061 646.07 89.163 647.316 85.7271V85.7271Z" fill="#218352"/>
<path d="M648.263 82.6805C649.248 79.9629 650.901 77.5369 653.07 75.626C655.239 73.7152 657.854 72.3809 660.674 71.7463L662.094 80.1835L664.726 71.3222C668.38 71.3764 671.923 72.5906 674.843 74.7896C677.762 76.9885 679.907 80.0584 680.969 83.556C682.03 87.0536 681.952 90.7979 680.746 94.2484C679.541 97.6989 677.27 100.677 674.261 102.753C671.253 104.828 667.662 105.894 664.009 105.796C660.355 105.698 656.827 104.442 653.934 102.208C651.041 99.9748 648.932 96.8795 647.913 93.3695C646.894 89.8595 647.016 86.1163 648.263 82.6805V82.6805Z" stroke="#3F3D56" stroke-miterlimit="10"/>
<path d="M660.235 176.876C664.216 178.319 668.588 178.248 672.519 176.675C676.45 175.103 679.665 172.138 681.551 168.347C683.437 164.557 683.862 160.205 682.745 156.12C681.628 152.036 679.048 148.506 675.495 146.202L673.473 153.012L672.039 144.475C672.025 144.469 672.01 144.463 671.995 144.459C669.866 143.685 667.606 143.338 665.343 143.438C663.08 143.539 660.859 144.084 658.807 145.043C656.754 146.001 654.911 147.355 653.383 149.027C651.854 150.698 650.669 152.654 649.897 154.784C649.125 156.913 648.779 159.174 648.881 161.437C648.982 163.699 649.529 165.92 650.489 167.972C651.449 170.023 652.804 171.866 654.476 173.393C656.149 174.921 658.105 176.104 660.235 176.876H660.235Z" fill="#218352"/>
<path d="M661.056 173.79C665.036 175.233 669.408 175.162 673.339 173.589C677.27 172.017 680.485 169.052 682.371 165.262C684.257 161.471 684.682 157.119 683.566 153.035C682.449 148.951 679.868 145.42 676.316 143.116L674.293 149.926L672.859 141.389C672.845 141.383 672.83 141.377 672.815 141.373C670.686 140.599 668.426 140.252 666.163 140.353C663.9 140.453 661.679 140.998 659.627 141.957C657.575 142.916 655.732 144.269 654.203 145.941C652.674 147.612 651.49 149.569 650.717 151.698C649.945 153.827 649.599 156.088 649.701 158.351C649.803 160.614 650.349 162.834 651.309 164.886C652.269 166.937 653.624 168.78 655.296 170.307C656.969 171.835 658.926 173.019 661.056 173.79H661.056Z" stroke="#3F3D56" stroke-miterlimit="10"/>
<path d="M642.284 205.511C642.969 209.405 644.971 212.945 647.956 215.538C650.941 218.131 654.726 219.619 658.678 219.752C662.63 219.885 666.507 218.655 669.659 216.269C672.812 213.883 675.048 210.485 675.993 206.646C676.938 202.807 676.533 198.759 674.848 195.183C673.163 191.606 670.3 188.717 666.738 187.001C663.175 185.286 659.132 184.847 655.284 185.758C651.437 186.67 648.02 188.877 645.607 192.008L653.289 203.571L642.792 197.434C641.978 200.047 641.804 202.817 642.284 205.511V205.511Z" fill="#218352"/>
<path d="M642.994 203.226C643.679 207.12 645.681 210.66 648.666 213.253C651.651 215.846 655.437 217.334 659.388 217.467C663.34 217.6 667.217 216.37 670.369 213.984C673.522 211.598 675.758 208.2 676.703 204.361C677.648 200.522 677.244 196.474 675.558 192.898C673.873 189.321 671.01 186.432 667.448 184.717C663.886 183.001 659.842 182.562 655.995 183.473C652.147 184.385 648.731 186.592 646.317 189.723L654 201.286L643.503 195.149C642.689 197.762 642.514 200.532 642.994 203.226V203.226Z" stroke="#3F3D56" stroke-miterlimit="10"/>
</g>
<defs>
<clipPath id="clip0">
<rect width="684.594" height="500" fill="white"/>
</clipPath>
</defs>
</svg>
