<svg width="617" height="500" viewBox="0 0 617 500" fill="none" xmlns="http://www.w3.org/2000/svg">
<g clip-path="url(#clip0)">
<path d="M415.315 459.178C386.624 459.254 357.96 457.376 329.523 453.556C328.595 453.438 327.654 453.305 326.719 453.166C319.739 452.173 312.755 451.039 305.966 449.793C275.414 444.206 246.603 436.046 220.334 425.538C132.915 390.57 77.951 398.012 47.2363 410.412C13.9962 423.832 1.21859 445.789 1.09335 446.009L0 445.389C0.126767 445.165 13.0692 422.881 46.6724 409.284C66.3745 401.311 89.2308 397.828 114.611 398.925C146.293 400.297 182.02 408.858 220.801 424.37C246.992 434.847 275.723 442.985 306.193 448.557C312.965 449.799 319.932 450.931 326.9 451.922C327.831 452.06 328.763 452.192 329.689 452.31C406.772 462.913 481.133 456.519 529.943 449.289C570.175 443.329 596.066 436.361 596.323 436.291L596.652 437.504C596.395 437.574 570.439 444.561 530.128 450.532C492.117 456.193 453.745 459.083 415.315 459.178V459.178Z" fill="#3F3D56"/>
<path d="M415.401 98.364C393.239 98.3643 371.664 97.3271 350.848 95.254C303.014 90.4902 259.103 80.2117 220.334 64.704C132.915 29.7359 77.951 37.1775 47.2363 49.5786C13.9962 62.9983 1.21859 84.9553 1.09335 85.1754L0 84.5547C0.126767 84.3313 13.0692 62.048 46.6724 48.4505C66.3748 40.4779 89.2308 36.9922 114.611 38.0917C146.293 39.4634 182.02 48.0242 220.801 63.5364C308.357 98.5592 405.786 99.9356 472.101 94.9271C543.979 89.496 595.808 75.5973 596.323 75.4577L596.652 76.6708C596.137 76.811 544.215 90.7367 472.224 96.1785C452.948 97.6356 433.968 98.364 415.401 98.364Z" fill="#3F3D56"/>
<path d="M412.145 6.07857C412.145 6.07857 387.43 -2.74839 371.541 32.5594C355.653 67.8672 330.937 106.706 330.937 106.706L345.06 110.237C345.06 110.237 348.591 85.5211 357.418 81.9904L353.887 113.767C353.887 113.767 459.811 150.841 507.476 110.237L505.711 97.8789C505.711 97.8789 512.773 99.6443 512.773 110.237L518.069 104.94C518.069 104.94 512.773 94.3481 496.884 80.225C486.455 70.9552 482.872 53.3195 481.64 42.2934C480.718 33.0864 477.034 24.3732 471.072 17.2966C460.514 5.05966 441.274 -7.94649 412.145 6.07857Z" fill="#272727"/>
<path d="M562.151 205.872C562.151 205.872 608.661 245.542 615.5 268.796C622.34 292.051 589.51 294.787 589.51 294.787L518.378 301.626C518.378 301.626 517.01 334.456 504.699 338.56C492.387 342.664 502.199 284.271 502.199 284.271L571.727 264.693L540.265 231.862L562.151 205.872Z" fill="#FBBEBE"/>
<path d="M344.652 246.91L339.18 319.409L309.086 442.522C309.086 442.522 281.728 498.607 304.982 499.975C328.237 501.343 326.869 446.626 326.869 446.626L370.642 330.353L374.746 251.013L344.652 246.91Z" fill="#FBBEBE"/>
<path d="M421.256 119.693C446.186 119.693 466.397 99.4825 466.397 74.5516C466.397 49.6208 446.186 29.4103 421.256 29.4103C396.325 29.4103 376.114 49.6208 376.114 74.5516C376.114 99.4825 396.325 119.693 421.256 119.693Z" fill="#FBBEBE"/>
<path d="M400.737 96.4384C400.737 96.4384 417.152 155.259 391.161 170.306C365.171 185.353 456.821 196.297 481.444 151.155C481.444 151.155 437.671 136.108 449.982 96.4384H400.737Z" fill="#FBBEBE"/>
<path d="M369.275 177.146L361.067 174.41C361.067 174.41 344.652 181.249 344.652 193.561C344.652 205.872 341.916 255.117 341.916 255.117L378.85 259.221L369.275 177.146Z" fill="#BF211E"/>
<path d="M530.035 449.91C479.538 457.391 405.938 463.432 329.609 452.934C329.603 452.18 329.603 451.444 329.603 450.728C329.603 446.459 329.766 442.239 330.093 438.067C334.003 386.695 360.469 343.867 370.709 329.025C371.225 328.271 371.702 327.592 372.13 326.988C373.783 324.668 374.745 323.443 374.745 323.443C374.745 323.443 454.084 322.148 495.121 338.561C497.1 339.392 498.911 340.576 500.465 342.056C515.766 356.175 524.755 402.015 530.035 449.91Z" fill="#272727"/>
<path d="M500.595 157.995C500.595 157.995 518.378 148.419 536.161 168.938L571.727 209.976L544.368 240.07L492.387 208.608L500.595 157.995Z" fill="#BF211E"/>
<path d="M372.476 74.8379C388.457 63.2726 401.393 49.9519 409.95 34.1061C409.95 34.1061 439.277 66.6915 457.198 68.3208C475.12 69.9501 458.828 29.2183 458.828 29.2183L426.242 21.072L395.286 24.3305L370.847 40.6232L372.476 74.8379Z" fill="#272727"/>
<path d="M474.604 148.419C474.604 148.419 455.461 178.687 398.005 164.237L365.4 173.216L361.067 174.41C361.067 174.41 365.171 256.485 376.114 271.532C387.058 286.579 384.322 294.787 381.586 296.155C378.85 297.523 372.01 294.787 376.114 301.626C380.218 308.466 385.69 304.362 380.218 308.466C374.746 312.57 372.01 327.617 372.01 327.617L500.595 344.032C500.595 344.032 496.491 290.683 507.435 263.325C518.378 235.966 521.114 225.023 521.114 225.023L512.906 156.627L474.604 148.419Z" fill="#BF211E"/>
<path d="M207.366 121.64H31.3495V341.66H207.366V121.64Z" fill="#E6E6E6"/>
<path d="M81.3256 140.184H43.6078V165.33H81.3256V140.184Z" fill="white"/>
<path d="M189.764 189.218H43.9221V198.018H189.764V189.218Z" fill="white"/>
<path d="M189.764 212.477H43.9221V221.278H189.764V212.477Z" fill="white"/>
<path d="M189.764 235.736H43.9221V244.537H189.764V235.736Z" fill="white"/>
<path d="M189.764 258.996H43.9221V267.796H189.764V258.996Z" fill="white"/>
<path d="M189.764 282.255H43.9221V291.056H189.764V282.255Z" fill="white"/>
<path d="M241.941 341.346C241.933 349.649 238.929 357.67 233.481 363.936C228.033 370.201 220.507 374.291 212.286 375.452C204.064 376.613 195.7 374.769 188.73 370.258C181.759 365.746 176.651 358.871 174.344 350.895C172.036 342.919 172.684 334.379 176.169 326.843C179.654 319.306 185.742 313.281 193.313 309.873C200.884 306.466 209.431 305.905 217.383 308.294C225.335 310.683 232.157 315.861 236.597 322.877C240.089 328.404 241.942 334.808 241.941 341.346V341.346Z" fill="#218352"/>
<path d="M236.597 322.877L202.563 356.905C200.424 353.593 188.507 338.203 188.507 338.203C190.034 336.659 191.664 335.221 193.385 333.897L203.267 347.073L232.612 317.728C234.1 319.315 235.434 321.039 236.597 322.877V322.877Z" fill="white"/>
</g>
<defs>
<clipPath id="clip0">
<rect width="616.438" height="500" fill="white"/>
</clipPath>
</defs>
</svg>
