<svg width="718" height="500" viewBox="0 0 718 500" fill="none" xmlns="http://www.w3.org/2000/svg">
<g clip-path="url(#clip0)">
<path d="M71.9026 85.0466C91.3092 85.0466 107.041 69.3144 107.041 49.9078C107.041 30.5012 91.3092 14.769 71.9026 14.769C52.496 14.769 36.7638 30.5012 36.7638 49.9078C36.7638 69.3144 52.496 85.0466 71.9026 85.0466Z" fill="#218352"/>
<path opacity="0.1" d="M67.6094 121.44C82.3633 154.765 63.543 193.139 41.3895 222.034C33.9748 231.724 25.7891 241.882 24.7611 254.036C23.5216 268.903 33.5893 282.569 45.5315 291.503C67.3147 307.784 97.0643 312.817 122.989 304.601C145.392 297.504 164.228 281.473 186.827 275.011C224.619 264.187 264.678 282.131 297.043 304.488C319.952 320.293 344.487 339.551 372.105 336.165C391.538 333.784 408.03 320.141 419.224 304.08C424.628 296.325 429.329 287.633 437.198 282.403C441.876 279.289 447.371 277.641 452.866 276.462C503.046 265.736 556.302 291.911 605.817 278.45C639.263 269.38 665.928 242.925 682.511 212.488C699.094 182.05 706.834 147.683 713.282 113.632C717.862 89.4455 721.664 63.3163 711.135 41.0721C699.994 17.5203 674.205 3.24253 648.287 0.566877C622.37 -2.10878 596.376 5.27573 572.5 15.6911C542.667 28.7368 513.424 46.9978 480.862 47.0583C458.686 47.1036 437.538 38.5929 416.337 32.1003C380.888 21.2541 344.026 15.865 307.292 10.8916C272.123 6.12982 236.607 1.70063 201.226 4.51234C176.193 6.50018 154.085 16.0691 129.792 20.4982C113.957 23.3855 98.0469 21.2541 82.5069 26.0914C63.3692 32.0776 43.6873 45.9472 42.6291 67.7908C41.6314 88.5839 59.7865 103.761 67.6094 121.44Z" fill="#218352"/>
<path d="M454.937 151.114C451.71 142.702 443.388 122.929 437.908 126.852C430.985 131.81 444.832 153.714 444.832 153.714C445.225 157.735 437.44 166.102 433.267 170.275C433.267 169.942 433.267 169.753 433.267 169.753C433.228 169.912 433.167 170.064 433.086 170.207L432.738 170.018C432.645 170.351 432.477 170.659 432.247 170.917C432.247 170.35 432.209 170.018 432.209 170.018C431.408 173.411 417.425 177.712 417.425 177.712C417.425 177.712 417.047 177.712 416.397 177.712C412.512 177.712 402.399 176.835 397.713 169.337C395.289 165.275 392.188 161.658 388.545 158.642C387.297 157.665 385.781 157.09 384.198 156.995C371.251 156.163 360.768 149.61 358.674 148.212L358.288 147.947L358.205 148.189C357.714 147.486 357.238 146.738 356.792 145.967L356.565 145.551C359.699 143.978 362.336 141.567 364.184 138.587C366.032 135.607 367.018 132.173 367.034 128.666C367.034 128.537 367.034 128.401 367.034 128.273C368.173 126.304 368.772 124.07 368.772 121.795V119.528L371.727 116.897C373.08 115.696 374.478 114.426 375.166 112.771C375.443 112.101 375.566 111.378 375.529 110.654C375.595 110.034 375.502 109.408 375.259 108.834C375.016 108.26 374.63 107.757 374.138 107.374C371.871 105.809 368.092 107.374 366.452 105.197C365.696 104.215 365.832 102.877 365.461 101.72C364.706 99.3697 361.985 98.0998 359.468 98.062C356.951 98.0243 354.54 98.9388 352.121 99.6266C347.039 101.069 341.736 101.566 336.475 101.093C335.052 100.84 333.591 100.891 332.189 101.244C331.333 101.598 330.572 102.148 329.968 102.851C329.364 103.553 328.934 104.388 328.713 105.288C328.526 105.964 328.414 106.658 328.38 107.359C326.271 109.737 325.105 112.804 325.1 115.983V121.795C325.104 124.898 326.217 127.898 328.236 130.253C328.475 132.988 329.306 135.638 330.673 138.019C332.04 140.4 333.909 142.454 336.15 144.039C336.15 144.191 336.15 144.344 336.15 144.501L336.248 144.561C336.126 146.363 335.848 148.151 335.417 149.905V149.519C335.417 149.519 324.835 155.15 313.498 155.286H312.251C310.014 155.211 307.839 156.027 306.204 157.554C302.848 160.713 296.968 165.709 293.355 165.709C292.599 165.709 273.522 169.436 270.362 170.055L264.459 164.273L264.278 164.613L263.93 164.273C263.285 164.323 262.643 164.416 262.01 164.553C258.987 160.97 252.94 152.641 251.542 141.462C251.542 141.462 264.595 126.595 259.796 112.74C255.699 100.934 244.414 126.24 241.21 133.866C240.649 135.197 240.579 136.683 241.013 138.061L251.617 172.24C250.608 174.888 250.318 177.757 250.779 180.554H250.658L258.382 190.463C258.382 190.463 264.195 192.942 273.287 192.897C279.951 192.908 286.556 191.64 292.742 189.163H294.534L294.194 189.291H303.392L309.242 206.985C309.046 208.595 306.219 231.066 303.951 236.093C303.279 237.772 302.975 239.576 303.06 241.384C303.179 244.856 303.745 248.298 304.745 251.625L309.87 251.436L309.673 251.837C305.335 260.733 298.086 276.583 293.801 291.397L286.341 306.514L291.934 374.312H292.16L292.591 374.38C293.196 374.471 294.103 374.607 295.297 374.758L294.859 375.514L282.531 395.922C282.531 395.922 273.741 413.918 293.188 410.524C293.188 410.524 300.376 408.438 303.309 396.163L316.098 384.168C316.098 384.168 316.695 376.202 313.074 373.02C312.848 369.339 312.273 358.591 313.158 356.006C314.223 352.877 308.623 316.891 308.623 316.891C308.623 316.891 328.864 274.905 341.123 273.862C342.022 273.799 342.924 273.917 343.776 274.209C353.852 277.49 366.058 301.85 369.649 309.431L369.815 309.779V309.847L369.951 310.142V310.225L370.072 310.482V310.55L370.178 310.784V310.837L370.268 311.026V311.102L370.337 311.245V311.306L370.382 311.412V311.472V311.54L370.42 311.631L372.014 358.833L372.173 358.916H372.249L372.113 359.891L371.417 364.766C371.417 364.766 380.208 383.284 379.671 385.627C379.134 387.97 385.529 397.365 394.584 394.758C403.639 392.15 398.249 377.449 398.249 377.449L389.527 359.475L389.142 358.674C390.011 358.141 390.83 357.531 391.591 356.852C391.591 356.852 388.93 337.556 391.591 333.384C394.251 329.212 395.052 310.172 395.052 310.172C395.052 310.172 393.185 297.134 389.988 291.397L376.595 243.591C380.608 247.324 383.73 248.783 386.338 248.685H386.768C387.915 248.706 389.046 248.425 390.049 247.869C390.587 247.565 391.093 247.208 391.56 246.803C391.65 246.726 391.733 246.643 391.81 246.553V246.553C395.536 243.424 387.547 231.165 383.019 223.878C378.658 216.849 384.667 197.749 385.121 196.328C385.524 196.032 385.957 195.779 386.413 195.572C387.351 195.171 388.356 194.953 389.376 194.93C393.714 195.081 399.051 197.575 405.657 198.83C410.248 199.611 414.9 199.973 419.556 199.911H419.829C421.68 199.911 423.358 199.873 424.719 199.82C425.96 199.771 427.174 199.443 428.271 198.86V198.86C429.211 198.312 430.063 197.624 430.796 196.819L442.39 183.721L442.088 183.864C442.65 182.379 442.65 180.739 442.088 179.254L454.34 158.09C454.959 157.048 455.333 155.879 455.437 154.671C455.54 153.463 455.369 152.247 454.937 151.114V151.114Z" fill="url(#paint0_linear)"/>
<path d="M317.284 382.377L304.942 394.206C302.115 406.299 295.169 408.347 295.169 408.347C276.401 411.688 284.882 393.987 284.882 393.987L296.786 373.844L298.252 371.357C298.252 371.357 306.74 368.787 312.394 370.329C313.108 370.525 313.767 370.881 314.322 371.372C317.866 374.448 317.284 382.377 317.284 382.377Z" fill="#444176"/>
<path d="M393.389 392.921C384.644 395.491 378.477 386.239 379.029 383.919C379.58 381.598 371.039 363.375 371.039 363.375L371.705 358.568L372.324 354.116L386.685 355.144L388.038 357.986L396.458 375.71C396.458 375.71 402.134 390.351 393.389 392.921Z" fill="#444176"/>
<path opacity="0.1" d="M314.458 373.382C313.105 375.703 302.137 374.531 296.794 373.806L298.26 371.319C298.26 371.319 306.748 368.749 312.402 370.291C313.116 370.487 313.775 370.844 314.329 371.334C314.405 372.589 314.458 373.382 314.458 373.382Z" fill="black"/>
<path opacity="0.1" d="M388.053 357.971C380.699 362.869 372.869 359.165 371.689 358.553L372.309 354.101L386.67 355.129L388.053 357.971Z" fill="black"/>
<path d="M390.049 332.242C387.479 336.354 390.049 355.386 390.049 355.386C381.561 363.103 371.538 357.442 371.538 357.442L370.027 310.905C370.027 310.905 353.315 272.592 341.486 273.62C329.657 274.648 310.119 316.045 310.119 316.045C310.119 316.045 315.516 351.524 314.488 354.592C313.46 357.661 314.488 372.589 314.488 372.589C312.689 375.673 293.922 372.589 293.922 372.589L288.525 305.735L295.69 290.815C299.81 276.212 306.809 260.582 310.996 251.814C313.074 247.453 314.465 244.792 314.465 244.792L328.146 241.943L372.551 232.737L388.507 290.815C391.591 296.469 393.389 309.325 393.389 309.325C393.389 309.325 392.619 328.131 390.049 332.242Z" fill="#565387"/>
<g opacity="0.1">
<path opacity="0.1" d="M375.65 357.442L374.138 310.905C374.138 310.905 357.427 272.592 345.598 273.62C345.069 273.671 344.549 273.788 344.049 273.968C355.583 277.8 370.027 310.905 370.027 310.905L371.538 357.442C374.692 359.049 378.247 359.698 381.765 359.309C379.632 359.052 377.562 358.42 375.65 357.442V357.442Z" fill="black"/>
<path opacity="0.1" d="M298.003 372.612L292.606 305.758L299.802 290.815C303.921 276.212 310.92 260.582 315.108 251.814C317.186 247.453 318.577 244.792 318.577 244.792L332.258 241.943L372.793 233.515L372.574 232.706L328.146 241.943L314.465 244.792C314.465 244.792 313.074 247.453 310.996 251.814C306.793 260.582 299.81 276.243 295.69 290.815L288.495 305.728L293.891 372.581C293.891 372.581 304.14 374.267 310.217 373.896C306.127 373.674 302.05 373.246 298.003 372.612V372.612Z" fill="black"/>
</g>
<path d="M266.734 165.505C266.734 165.505 252.079 166.261 254.134 181.703L258.246 182.217L264.414 175.535L267.498 169.881V168.597L266.734 165.505Z" fill="#CED2DF"/>
<path opacity="0.1" d="M266.734 165.505C266.734 165.505 252.079 166.261 254.134 181.703L258.246 182.217L264.414 175.535L267.498 169.881V168.597L266.734 165.505Z" fill="black"/>
<path d="M429.775 171.159C429.775 171.159 441.869 177.583 438.777 185.044L434.923 186.555L429.783 183.728L429.027 177.047L429.541 172.421L429.775 171.159Z" fill="#CED2DF"/>
<path opacity="0.1" d="M429.775 171.159C429.775 171.159 441.869 177.583 438.777 185.044L434.923 186.555L429.783 183.728L429.027 177.047L429.541 172.421L429.775 171.159Z" fill="black"/>
<path d="M352.128 104.819H341.841C333.038 104.819 325.901 111.956 325.901 120.76C325.901 129.563 333.038 136.7 341.841 136.7H352.128C360.932 136.7 368.069 129.563 368.069 120.76C368.069 111.956 360.932 104.819 352.128 104.819Z" fill="#88455E"/>
<path d="M266.636 167.69L257.634 182.05L256.878 179.496L244.649 139.648C244.23 138.29 244.297 136.828 244.838 135.514C247.929 128.001 258.828 103.013 262.781 114.69C267.407 128.295 254.807 142.974 254.807 142.974C256.243 154.886 262.932 163.517 265.563 166.51C266.228 167.289 266.636 167.69 266.636 167.69Z" fill="#EC8C9C"/>
<path d="M427.848 173.857C427.848 173.857 441.99 160.486 441.453 155.09C441.453 155.09 428.082 133.496 434.771 128.636C440.062 124.766 448.097 144.266 451.211 152.558C451.623 153.662 451.788 154.843 451.695 156.018C451.602 157.193 451.254 158.334 450.674 159.36L433.774 189.284L427.848 173.857Z" fill="#EC8C9C"/>
<path d="M336.309 136.579C336.309 136.579 338.879 153.034 331.426 159.209C323.974 165.384 352.771 165.346 352.771 165.346L363.058 155.831C363.058 155.831 351.229 144.773 354.827 136.549L336.309 136.579Z" fill="#EC8C9C"/>
<path opacity="0.1" d="M335.795 155.347C335.795 155.347 346.853 163.578 357.903 154.319L375.899 191.604L374.871 237.113C374.871 237.113 337.586 256.394 322.16 244.573C306.733 232.752 319.59 226.577 319.59 226.577L315.992 191.612L319.847 168.982C319.847 168.982 326.785 158.181 327.307 158.181C327.828 158.181 335.795 155.347 335.795 155.347Z" fill="black"/>
<path d="M335.795 154.833C335.795 154.833 346.853 163.079 357.911 153.805L375.907 191.09L374.879 236.599C374.879 236.599 337.594 255.88 322.167 244.059C306.741 232.238 319.597 226.063 319.597 226.063L315.999 191.098L319.854 168.468C319.854 168.468 326.793 157.667 327.314 157.667C327.836 157.667 335.795 154.833 335.795 154.833Z" fill="#EBF1F6"/>
<path opacity="0.1" d="M335.795 150.986C335.795 150.986 325.311 156.957 313.928 156.662C312.861 156.628 311.797 156.808 310.799 157.189C309.801 157.571 308.889 158.147 308.116 158.884C304.874 161.998 299.197 166.926 295.683 166.926C294.927 166.926 273.053 171.295 273.053 171.295L267.271 165.513C267.271 165.513 258.654 182.353 254.543 181.582L262.003 191.355C262.003 191.355 276.144 197.522 294.655 190.07H305.456L311.109 207.552C311.109 207.552 308.282 231.21 305.97 236.35C303.657 241.489 306.725 251.519 306.725 251.519L327.035 250.763C327.035 250.763 328.063 240.733 329.605 239.426C331.146 238.118 324.208 193.917 324.208 193.917C324.208 193.917 319.582 168.974 336.551 159.98L335.795 150.986Z" fill="black"/>
<path opacity="0.1" d="M328.138 241.973C327.39 245.023 326.857 248.122 326.543 251.247L310.996 251.837C313.074 247.475 314.465 244.815 314.465 244.815L328.138 241.973Z" fill="black"/>
<path opacity="0.1" d="M266.636 167.69L257.634 182.05L256.878 179.496C260.181 176.215 264.051 169.36 265.593 166.503C266.228 167.289 266.636 167.69 266.636 167.69Z" fill="black"/>
<path d="M335.795 150.986C335.795 150.986 324.79 156.957 313.415 156.662C312.347 156.628 311.283 156.808 310.285 157.189C309.287 157.571 308.375 158.147 307.602 158.884C304.36 161.998 298.683 166.926 295.169 166.926C294.413 166.926 272.539 171.295 272.539 171.295L266.734 165.505C266.734 165.505 258.118 182.345 254.006 181.574L261.466 191.347C261.466 191.347 275.608 197.515 294.118 190.062H304.919L310.573 207.537C310.573 207.537 307.746 231.195 305.433 236.334C303.12 241.474 306.189 251.504 306.189 251.504L326.498 250.748C326.498 250.748 327.526 240.718 329.068 239.411C330.61 238.103 323.671 193.902 323.671 193.902C323.671 193.902 319.046 168.959 336.014 159.965L335.795 150.986Z" fill="#CED2DF"/>
<path opacity="0.1" d="M357.911 149.429C357.911 149.429 368.402 157.425 382.407 158.347C383.94 158.444 385.405 159.011 386.602 159.972C390.134 162.969 393.128 166.548 395.453 170.554C401.107 179.813 414.991 178.785 414.991 178.785C414.991 178.785 428.49 174.545 429.261 171.227C429.261 171.227 429.647 189.367 438.135 184.983L426.971 197.847C426.267 198.66 425.405 199.32 424.436 199.787C423.468 200.253 422.414 200.517 421.34 200.561C417.145 200.727 409.859 200.78 403.707 199.586C394.448 197.787 387.766 193.418 382.883 197.273C382.883 197.273 376.459 217.325 380.827 224.528C385.196 231.731 392.921 243.81 389.316 246.901C385.71 249.992 381.341 249.728 374.146 242.275C366.95 234.823 366.172 222.223 366.172 222.223L367.971 189.828C367.971 189.828 361.032 165.399 354.366 160.517L357.911 149.429Z" fill="black"/>
<path opacity="0.1" d="M439.155 184.658L427.961 197.575C427.217 198.432 426.297 199.118 425.263 199.586V199.586C424.344 200.001 423.353 200.234 422.345 200.274C418.151 200.447 410.864 200.5 404.712 199.299C396.05 197.613 389.641 193.683 384.849 196.336C384.509 196.523 384.185 196.738 383.881 196.978C383.881 196.978 377.456 217.03 381.825 224.234C386.194 231.437 393.919 243.515 390.313 246.606C389.71 247.137 389.033 247.577 388.303 247.914C385.068 249.373 381.054 248.11 375.144 241.981C367.948 234.521 367.17 221.928 367.17 221.928L368.968 189.533C368.968 189.533 362.03 165.105 355.363 160.222L358.304 149.678C360.329 151.054 370.442 157.516 382.944 158.34C384.476 158.436 385.941 159.004 387.139 159.965C390.671 162.962 393.664 166.541 395.99 170.547C401.643 179.806 415.528 178.778 415.528 178.778C418.856 177.716 422.107 176.423 425.255 174.908V174.908C427.228 173.94 428.967 172.882 429.79 171.884C430.022 171.624 430.19 171.314 430.282 170.977C430.282 170.977 430.675 189.027 439.155 184.658Z" fill="black"/>
<path d="M438.641 184.915L427.455 197.847C426.84 198.557 426.103 199.151 425.278 199.601V199.601C424.222 200.175 423.048 200.498 421.847 200.546C417.652 200.72 410.366 200.772 404.213 199.571C395.861 197.946 389.595 194.227 384.871 196.351C384.331 196.586 383.824 196.888 383.36 197.25C383.36 197.25 376.935 217.303 381.304 224.506C385.672 231.709 393.397 243.787 389.792 246.878C389.325 247.28 388.819 247.632 388.28 247.929C384.954 249.766 380.843 248.685 374.607 242.253C367.411 234.793 366.633 222.2 366.633 222.2L368.432 189.805C368.432 189.805 361.493 165.377 354.827 160.494L357.911 149.436L358.281 149.693C360.307 151.069 370.42 157.531 382.921 158.355C384.454 158.451 385.919 159.019 387.116 159.98C390.648 162.977 393.641 166.556 395.967 170.562C401.62 179.821 415.505 178.793 415.505 178.793C418.834 177.731 422.084 176.438 425.233 174.923V174.923C427.568 173.729 429.473 172.421 429.768 171.227C429.768 171.227 429.768 171.461 429.768 171.877C429.995 174.998 431.128 188.777 438.641 184.915Z" fill="#CED2DF"/>
<path opacity="0.1" d="M355.053 136.965H336.158C336.573 139.969 336.692 143.007 336.513 146.035C339.397 148.065 342.78 149.271 346.298 149.524C349.816 149.777 353.337 149.067 356.482 147.471C354.668 144.115 353.564 140.306 355.053 136.965Z" fill="black"/>
<path d="M347.624 149.172C357.989 149.172 366.391 140.769 366.391 130.404C366.391 120.039 357.989 111.637 347.624 111.637C337.259 111.637 328.856 120.039 328.856 130.404C328.856 140.769 337.259 149.172 347.624 149.172Z" fill="#EC8C9C"/>
<path opacity="0.1" d="M343.724 127.063C345.817 126.814 347.911 126.073 349.974 126.489C351.849 126.867 353.444 128.159 355.318 128.552C358.931 129.308 362.287 126.648 365.015 124.169L370.911 118.802C372.219 117.615 373.564 116.368 374.237 114.736C374.909 113.103 374.675 110.957 373.239 109.929C371.085 108.417 367.374 109.929 365.817 107.782C365.114 106.815 365.219 105.515 364.857 104.358C364.101 102.045 361.501 100.783 359.067 100.753C356.633 100.723 354.305 101.614 351.977 102.264C347.073 103.687 341.945 104.177 336.861 103.708C335.488 103.457 334.078 103.506 332.726 103.852C331.894 104.207 331.157 104.752 330.574 105.444C329.991 106.136 329.579 106.955 329.37 107.835C328.206 111.947 330.194 118.575 332.189 122.256C334.185 125.937 339.74 127.555 343.724 127.063Z" fill="black"/>
<path d="M343.724 126.549C345.817 126.3 347.911 125.559 349.974 125.975C351.849 126.353 353.444 127.645 355.318 128.038C358.931 128.794 362.287 126.134 365.015 123.655L370.911 118.288C372.219 117.102 373.564 115.854 374.237 114.222C374.909 112.589 374.675 110.443 373.239 109.415C371.085 107.903 367.374 109.415 365.817 107.268C365.114 106.301 365.219 105.001 364.857 103.844C364.101 101.531 361.501 100.269 359.067 100.239C356.633 100.209 354.305 101.1 351.977 101.751C347.073 103.173 341.945 103.663 336.861 103.194C335.488 102.943 334.078 102.992 332.726 103.338C331.894 103.693 331.157 104.238 330.574 104.93C329.991 105.622 329.579 106.441 329.37 107.321C328.206 111.433 330.194 118.061 332.189 121.742C334.185 125.423 339.74 127.003 343.724 126.549Z" fill="#88455E"/>
<path opacity="0.1" d="M310.988 207.673C310.988 207.673 315.1 208.187 317.156 210.757C319.212 213.327 322.81 214.098 322.81 214.098" fill="black"/>
<path opacity="0.1" d="M273.96 173.729C273.96 173.729 277.316 181.219 275.245 181.975C273.174 182.731 273.96 188.142 273.96 188.142" fill="black"/>
<g opacity="0.1">
<path opacity="0.1" d="M275.116 171.159C275.116 171.159 296.968 166.79 297.723 166.79C301.246 166.79 306.914 161.862 310.157 158.748C311.143 157.803 312.356 157.129 313.679 156.79H313.399C312.332 156.757 311.268 156.936 310.27 157.318C309.272 157.699 308.36 158.275 307.587 159.013C304.345 162.127 298.668 167.055 295.154 167.055C294.541 167.055 280.558 169.829 274.882 170.955L275.116 171.159Z" fill="black"/>
<path opacity="0.1" d="M335.825 152.066V151.107C330.568 153.787 324.912 155.597 319.076 156.465C324.866 155.95 330.529 154.463 335.825 152.066V152.066Z" fill="black"/>
<path opacity="0.1" d="M308.804 251.376C308.804 251.376 305.72 241.346 308.048 236.206C310.376 231.066 313.188 207.409 313.188 207.409L307.549 189.926H296.718L296.061 190.183H304.942L310.573 207.673C310.573 207.673 307.746 231.331 305.433 236.471C303.12 241.61 306.189 251.64 306.189 251.64L326.498 250.884V250.726L308.804 251.376Z" fill="black"/>
</g>
<g opacity="0.1">
<path opacity="0.1" d="M390.049 242.767C389.582 243.168 389.076 243.52 388.537 243.817C385.211 245.654 381.1 244.573 374.864 238.141C369.15 232.223 367.487 223.024 367.041 219.54L366.89 222.2C366.89 222.2 367.646 234.8 374.864 242.253C381.1 248.708 385.211 249.766 388.537 247.929C389.076 247.632 389.582 247.28 390.049 246.878C391.13 245.949 391.19 244.203 390.623 242.026C390.483 242.308 390.287 242.56 390.049 242.767V242.767Z" fill="black"/>
<path opacity="0.1" d="M435.006 185.3L427.727 193.713C427.112 194.423 426.375 195.017 425.55 195.466V195.466C424.494 196.04 423.32 196.363 422.119 196.411C417.924 196.585 410.638 196.638 404.485 195.436C396.133 193.811 389.867 190.092 385.143 192.216C384.604 192.451 384.096 192.754 383.632 193.116C383.632 193.116 379.482 206.071 380.117 214.891C380.608 206.645 383.632 197.228 383.632 197.228C384.096 196.865 384.604 196.563 385.143 196.328C389.875 194.204 396.133 197.923 404.485 199.548C410.638 200.742 417.916 200.689 422.119 200.523C423.32 200.475 424.494 200.152 425.55 199.578C426.373 199.135 427.11 198.549 427.727 197.847L438.921 184.93C438.342 185.291 437.686 185.512 437.007 185.576C436.328 185.641 435.642 185.546 435.006 185.3V185.3Z" fill="black"/>
</g>
<path d="M106.301 277.883C106.39 277.97 106.506 278.025 106.63 278.042C106.753 278.058 106.879 278.034 106.988 277.973C106.756 277.978 106.524 277.947 106.301 277.883V277.883Z" fill="url(#paint1_linear)"/>
<path d="M183.328 152.679C181.967 152.286 180.025 151.643 177.689 150.827C180.116 147.704 181.892 144.127 182.912 140.306L182.716 140.381C182.784 140.147 182.852 139.92 182.912 139.678C178.43 141.5 173.472 138.416 170.312 134.455C167.153 130.495 165.021 125.582 161.56 121.939C160.117 120.49 158.566 119.153 156.919 117.94C155.899 117.185 154.803 116.331 153.555 116.293C151.537 116.232 149.958 118.213 148.015 118.795C146.737 119.082 145.406 119.033 144.153 118.651C139.142 117.502 134.327 115.378 129.21 114.819C126.472 114.481 123.694 114.794 121.1 115.733C118.53 116.708 117.359 118.651 115.28 120.208C113.012 121.878 108.583 121.841 105.945 122.135C102.744 122.501 99.5212 122.635 96.3009 122.536C94.4503 122.375 92.587 122.444 90.7531 122.74C86.921 123.579 83.8448 126.625 80.9726 129.543C80.1886 130.203 79.6244 131.086 79.3551 132.075C79.3183 132.353 79.3183 132.635 79.3551 132.914C79.3262 133.676 79.4575 134.435 79.7406 135.143C80.6247 137.767 81.8741 140.253 83.4517 142.528C84.6233 144.206 85.9914 145.785 86.6565 147.773C86.9718 148.751 87.1374 149.77 87.1478 150.797C87.1152 151.887 87.0015 152.973 86.8077 154.047C86.3005 157.014 85.4665 159.917 84.321 162.701C83.6098 164.13 83.1204 165.659 82.8698 167.236C82.8482 167.558 82.8482 167.881 82.8698 168.203C82.6808 173.192 87.7147 176.782 88.6897 181.741C88.7698 182.152 88.8178 182.569 88.8333 182.988C88.7275 186.079 86.9664 189.102 84.3663 190.304C84.5931 190.395 84.8274 190.47 85.0617 190.546C84.838 190.686 84.6058 190.813 84.3663 190.924C84.8425 191.105 85.3262 191.264 85.8175 191.393C82.8625 193.966 80.379 197.036 78.4784 200.463C69.7333 216.743 10.5061 248.632 10.5061 248.632L11.3829 249.131L10.6724 249.592C5.54784 253.001 -6.47749 262.94 4.39142 275.509C4.39142 275.509 12.8794 262.116 18.8279 256.409C19.0924 256.152 19.3569 255.918 19.5837 255.699C19.7144 255.9 19.802 256.126 19.841 256.363C19.88 256.6 19.8696 256.842 19.8104 257.075L58.7511 235.193C58.7511 235.193 72.5904 225.503 76.4527 223.319C79.1712 221.625 82.1295 220.351 85.228 219.54L84.7745 219.729C86.2304 219.328 87.7315 219.115 89.2414 219.094C96.1347 219.2 103.602 224.249 106.059 244.24C109.354 271.012 107.827 275.842 106.769 276.5C106.639 276.49 106.51 276.467 106.384 276.432C106.416 276.46 106.452 276.485 106.49 276.507C106.346 276.497 106.204 276.472 106.066 276.432C106.142 276.501 106.235 276.551 106.336 276.574C106.436 276.598 106.541 276.596 106.641 276.568C106.712 276.589 106.788 276.596 106.862 276.587C106.936 276.577 107.007 276.553 107.072 276.515C107.245 276.525 107.419 276.525 107.593 276.515C107.593 276.762 107.575 277.013 107.54 277.27C107.487 277.27 107.23 277.414 107.54 277.429C107.457 278.941 107.465 280.581 107.54 282.297C104.116 282.486 100.692 282.69 97.7144 282.871L97.9789 281.458L98.0998 280.823C100.73 280.611 103.224 279.84 103.519 277.709C104.162 273.023 97.7295 270.521 92.2572 270.211C86.785 269.901 53.9666 272.085 53.9666 272.085C53.9666 272.085 49.0461 278.457 64.6541 280.4C65.1177 280.642 65.5989 280.893 66.0978 281.155C72.2125 284.64 80.504 291.057 84.4797 294.216L85.0315 294.655L83.2477 296.106C92.8997 298.29 102.234 335.175 107.382 352.038C112.529 368.9 123.791 368.288 133.125 365.786C141.87 363.443 142.951 338.047 143.095 334.858V334.533L158.65 353.746L159.829 355.205C160.282 355.441 160.731 355.663 161.174 355.87C172.95 361.471 185.958 350.73 182.262 338.486C178.521 326.143 172.716 307.889 168.846 300.172C165.603 293.71 161.416 282.977 158.877 276.258C159.206 276.125 159.527 275.971 159.836 275.797C159.836 275.797 159.776 275.494 159.678 274.943L159.836 274.859C159.836 274.859 156.057 255.419 155.891 241.603C155.891 241.361 155.891 241.109 155.891 240.847C155.891 240.696 155.891 240.544 155.891 240.401C158.703 239.758 160.486 239.509 160.486 239.509L160.539 238.904L160.214 238.972L161.779 221.067C161.779 221.067 167.523 208.845 163.124 203.758C161.787 202.27 160.894 200.437 160.547 198.467C159.791 193.789 160.547 185.981 170.788 179.496C186.555 169.496 192.708 161.356 192.708 161.356C192.708 161.356 192.98 155.521 183.328 152.679ZM152.014 165.105V156.828C154.939 156.685 157.924 157.025 160.864 156.828C162.308 156.727 163.738 156.487 165.135 156.11L165.845 156.601C161.544 159.91 156.908 162.76 152.014 165.105V165.105ZM107.306 294.836C108.462 295.637 109.626 296.469 110.768 297.308C111.478 301.389 112.105 304.269 112.151 304.473C110.846 301.114 109.224 297.887 107.306 294.836V294.836Z" fill="url(#paint2_linear)"/>
<path d="M132.294 288.034L131.614 291.73L131.092 294.556L130.14 299.726L120.903 306.189C120.903 306.189 120.072 305.478 118.696 304.352C114.917 301.238 106.958 294.919 101.116 291.503C99.6142 290.544 97.9894 289.794 96.2858 289.273L132.294 288.034Z" fill="#FFBDC6"/>
<path opacity="0.1" d="M132.294 288.034L131.614 291.73C129.578 291.843 127.535 291.739 125.522 291.42L103.973 291.73C102.952 291.669 102 291.586 101.108 291.495C99.6066 290.537 97.9818 289.787 96.2783 289.266L132.294 288.034Z" fill="black"/>
<path d="M125.522 290.815C125.522 290.815 136.3 292.659 136.912 288.041C137.524 283.423 131.372 280.989 126.149 280.642C120.926 280.294 89.506 282.501 89.506 282.501C89.506 282.501 83.9657 289.885 103.973 291.117L125.522 290.815Z" fill="#7679B4"/>
<path opacity="0.1" d="M132.294 288.034L131.614 291.73L131.092 294.556L130.14 299.726L120.903 306.189C120.903 306.189 120.072 305.478 118.696 304.352C114.917 301.238 106.958 294.919 101.116 291.503C99.6142 290.544 97.9894 289.794 96.2858 289.273L132.294 288.034Z" fill="black"/>
<path opacity="0.1" d="M132.294 288.034L131.614 291.73C129.578 291.843 127.535 291.739 125.522 291.42L103.973 291.73C102.952 291.669 102 291.586 101.108 291.495C99.6066 290.537 97.9818 289.787 96.2783 289.266L132.294 288.034Z" fill="black"/>
<path opacity="0.1" d="M125.522 290.815C125.522 290.815 136.3 292.659 136.912 288.041C137.524 283.423 131.372 280.989 126.149 280.642C120.926 280.294 89.506 282.501 89.506 282.501C89.506 282.501 83.9657 289.885 103.973 291.117L125.522 290.815Z" fill="black"/>
<path d="M149.066 139.036H92.7334V205.837H149.066V139.036Z" fill="#A66477"/>
<path opacity="0.1" d="M149.066 139.036H92.7334V205.837H149.066V139.036Z" fill="black"/>
<path d="M26.7037 253.401C25.774 253.636 24.5949 254.527 23.2722 255.827C17.5807 261.451 9.46307 274.64 9.46307 274.64C-0.937224 262.26 10.5741 252.472 15.5097 249.108C16.704 248.292 17.5051 247.853 17.5051 247.853L26.7037 253.401Z" fill="#FFBDC6"/>
<path d="M131.682 160.124C131.682 160.124 134.455 179.518 143.994 184.137C153.533 188.755 131.682 197.371 131.682 197.371L101.819 186.291C101.819 186.291 118.749 180.75 115.363 164.432L131.682 160.124Z" fill="#FFBDC6"/>
<path d="M99.6946 276.794L99.0144 280.49L98.4929 283.317L97.5405 288.487L88.3042 294.949C88.3042 294.949 87.4728 294.239 86.0972 293.113C82.318 289.999 74.359 283.68 68.5164 280.264C67.015 279.305 65.3902 278.555 63.6866 278.034L99.6946 276.794Z" fill="#FFBDC6"/>
<path opacity="0.1" d="M99.6946 276.794L99.0144 280.49C96.9785 280.604 94.9363 280.5 92.9224 280.181L71.3735 280.49C70.3531 280.43 69.4008 280.347 68.5089 280.256C67.0075 279.297 65.3827 278.547 63.6791 278.026L99.6946 276.794Z" fill="black"/>
<path d="M92.8921 279.568C92.8921 279.568 103.67 281.413 104.283 276.794C104.895 272.176 98.7423 269.712 93.5043 269.41C88.2664 269.107 56.869 271.254 56.869 271.254C56.869 271.254 51.3287 278.639 71.3357 279.871L92.8921 279.568Z" fill="#7679B4"/>
<path opacity="0.1" d="M98.4626 283.325L97.5103 288.495L88.274 294.957C88.274 294.957 87.4426 294.247 86.067 293.12L98.2812 283.106L98.4626 283.325Z" fill="black"/>
<path d="M159.406 353.799C158.982 353.592 158.554 353.373 158.121 353.141L156.994 351.705L142.12 332.809V333.142C142.021 336.279 140.948 361.297 132.589 363.602C123.662 366.066 112.884 366.678 107.963 350.057C103.043 333.437 94.109 297.111 84.8727 294.957L98.5684 283.718C98.5684 283.718 107.638 294.299 111.342 304.488C111.206 303.838 104.94 274.58 110.11 269.41H155.052C155.052 269.41 161.975 289.167 166.752 298.963C170.456 306.567 176.011 324.54 179.602 336.702C183.154 348.735 170.743 359.316 159.406 353.799Z" fill="#7679B4"/>
<path opacity="0.1" d="M158.151 274.943C151.22 279.047 120.745 277.376 110.813 276.711L108.115 276.515C107.82 276.515 108.16 276.348 108.16 276.348L108.44 273.552L115.824 254.777L155.385 231.86C154.583 234.271 154.311 237.967 154.379 242.207C154.576 255.797 158.151 274.943 158.151 274.943Z" fill="black"/>
<path d="M158.151 274.028C151.22 278.132 120.745 276.462 110.813 275.797L108.115 275.6H107.669L108.16 275.472L110.594 274.829L115.824 253.893L155.385 230.961C154.583 233.372 154.311 237.068 154.379 241.308C154.576 254.875 158.151 274.028 158.151 274.028Z" fill="#F2F1F2"/>
<path opacity="0.1" d="M154.379 241.278C146.337 243.129 128.636 248.579 121.833 261.685C117.298 270.438 113.519 274.194 110.821 275.766L108.122 275.57L108.168 275.404L110.601 274.761L115.832 253.825L155.392 230.893C154.576 233.372 154.311 237.037 154.379 241.278Z" fill="black"/>
<path opacity="0.1" d="M17.4674 247.861L26.7037 253.401C25.774 253.636 24.5949 254.527 23.2722 255.827C22.5163 253.56 17.6639 250.446 15.472 249.116C16.6662 248.299 17.4674 247.861 17.4674 247.861Z" fill="black"/>
<path opacity="0.1" d="M106.497 275.955C106.394 276.013 106.275 276.036 106.158 276.021C106.041 276.006 105.932 275.954 105.847 275.872C106.059 275.932 106.278 275.96 106.497 275.955V275.955Z" fill="black"/>
<path d="M127.366 182.905C127.366 182.905 119.052 183.827 113.201 177.674C113.201 177.674 88.5763 184.756 80.2621 200.765C71.9479 216.773 15.3057 248.171 15.3057 248.171C15.3057 248.171 25.1315 253.711 24.2321 256.485L61.4796 234.936C61.4796 234.936 74.7143 225.39 78.4103 223.236C82.1064 221.082 102.423 207.847 106.731 243.863C111.04 279.878 106.731 275.608 106.731 275.608C106.731 275.608 112.892 277.762 121.848 260.491C130.805 243.22 158.483 239.252 158.483 239.252L159.995 221.112C159.995 221.112 165.49 209.079 161.28 204.06C159.996 202.584 159.144 200.782 158.816 198.853C158.113 194.242 158.816 186.555 168.642 180.168C183.759 170.343 189.579 162.316 189.579 162.316C189.579 162.316 189.888 156.465 180.652 153.699C171.416 150.933 133.858 135.846 133.858 135.846L132.626 141.077L162.18 162.013C162.18 162.013 147.403 174.016 135.725 173.714C135.68 173.661 137.834 182.595 127.366 182.905Z" fill="#565388"/>
<path opacity="0.1" d="M133.072 168.566C132.344 166.086 131.776 163.561 131.372 161.008L115.053 165.346C115.768 168.46 115.64 171.708 114.683 174.757C118.018 175.646 121.541 175.533 124.812 174.431C128.083 173.328 130.956 171.286 133.072 168.559V168.566Z" fill="black"/>
<path d="M119.52 174.439C129.213 174.439 137.071 166.582 137.071 156.889C137.071 147.196 129.213 139.338 119.52 139.338C109.827 139.338 101.97 147.196 101.97 156.889C101.97 166.582 109.827 174.439 119.52 174.439Z" fill="#FFBDC6"/>
<path opacity="0.1" d="M128.847 116.973C133.715 117.525 138.348 119.618 143.14 120.752C144.337 121.128 145.613 121.177 146.836 120.896C148.695 120.321 150.207 118.371 152.127 118.432C153.314 118.432 154.394 119.278 155.347 120.057C156.924 121.254 158.408 122.57 159.784 123.995C163.087 127.585 165.142 132.422 168.158 136.322C171.174 140.223 175.928 143.261 180.214 141.47C177.304 152.807 167.75 161.477 157.425 162.18C153.306 162.459 149.111 161.605 145.098 162.814C144.103 163.22 143.053 163.475 141.984 163.57C139.716 163.57 137.842 161.461 136.406 159.413C133.05 154.591 130.359 149.119 126.58 144.727C125.333 143.276 123.859 141.893 122.098 141.628C120.337 141.364 118.711 142.203 117.139 143.019C114.547 144.364 111.894 145.755 109.883 148.053C107.873 150.351 106.603 153.79 107.434 156.904C107.88 158.582 108.908 160.093 108.946 161.855C108.946 164.651 106.512 166.699 106.021 169.413C105.913 170.558 105.872 171.709 105.9 172.859C105.681 176.593 103.247 179.662 100.692 181.998C99.7022 182.912 98.5987 183.887 98.3115 185.301C98.115 186.26 98.3115 187.281 98.183 188.256C97.8126 190.682 95.394 191.907 93.2549 192.224C90.7567 192.59 88.2061 192.288 85.8629 191.347C88.8862 189.934 90.6927 185.905 89.9973 182.277C89.0449 177.281 84.0262 173.698 84.4495 168.604C84.6862 167.044 85.1549 165.528 85.8402 164.107C86.9355 161.359 87.7312 158.5 88.2135 155.581C88.708 153.334 88.6588 151.002 88.0699 148.779C87.4274 146.821 86.1199 145.264 85.0012 143.609C83.4863 141.358 82.2908 138.909 81.4488 136.33C81.1437 135.568 81.027 134.743 81.1087 133.926C81.3524 132.963 81.8789 132.094 82.6203 131.432C85.3716 128.552 88.3193 125.552 91.9776 124.72C93.7255 124.429 95.5033 124.361 97.2684 124.516C100.35 124.614 103.435 124.483 106.497 124.123C109.022 123.828 113.3 123.866 115.431 122.219C117.419 120.707 118.545 118.779 121.002 117.812C123.509 116.894 126.203 116.606 128.847 116.973V116.973Z" fill="black"/>
<path opacity="0.1" d="M138.605 298.192C138.605 298.192 148.763 318.199 145.687 324.359Z" fill="black"/>
<path opacity="0.1" d="M157.025 351.705L142.15 332.809V333.142C142.15 333.142 141.288 327.035 144.123 329.091C150.328 333.58 160.26 340.942 160.471 342.212C160.683 343.482 158.461 348.576 157.025 351.705Z" fill="black"/>
<g opacity="0.1">
<path opacity="0.1" d="M135.975 173.661C135.975 173.661 137.229 178.861 133.171 181.461C139.421 180.388 139.693 175.528 139.504 173.411C138.338 173.6 137.156 173.684 135.975 173.661V173.661Z" fill="black"/>
<path opacity="0.1" d="M19.0092 246.939C19.0092 246.939 75.6515 215.541 83.9657 199.533C89.9292 188.044 104.298 181.159 111.932 178.181C106.361 180.047 87.6164 187.205 80.572 200.765C72.2578 216.773 15.6155 248.171 15.6155 248.171L19.0092 246.939Z" fill="black"/>
<path opacity="0.1" d="M146.995 171.219C156.632 168.196 165.845 160.736 165.845 160.736L136.292 139.799L136.965 136.927L134.138 135.793L132.906 141.024L162.459 161.96C157.717 165.688 152.52 168.799 146.995 171.219V171.219Z" fill="black"/>
<path opacity="0.1" d="M147.184 242.162C150.96 240.873 154.835 239.895 158.771 239.237L158.824 238.64C154.858 239.511 150.967 240.688 147.184 242.162V242.162Z" fill="black"/>
<path opacity="0.1" d="M111.365 274.413H111.093C110.99 274.471 110.871 274.494 110.754 274.479C110.637 274.464 110.528 274.412 110.443 274.33C110.654 274.389 110.873 274.417 111.093 274.413C112.105 273.824 113.625 269.228 110.443 242.623C107.041 214.219 93.6933 216.448 86.3844 219.714C93.852 217.658 104.131 219.434 107.056 243.855C110.239 270.46 108.719 275.063 107.706 275.645C109.019 275.597 110.29 275.169 111.365 274.413Z" fill="black"/>
<path opacity="0.1" d="M107.706 275.653C107.487 275.657 107.268 275.629 107.056 275.57C107.142 275.651 107.251 275.703 107.368 275.718C107.485 275.733 107.603 275.71 107.706 275.653V275.653Z" fill="black"/>
</g>
<path d="M128.847 116.376C133.715 116.928 138.348 119.021 143.14 120.155C144.337 120.531 145.613 120.58 146.836 120.299C148.695 119.724 150.207 117.774 152.127 117.835C153.314 117.835 154.394 118.681 155.347 119.46C156.924 120.657 158.408 121.973 159.784 123.398C163.087 126.988 165.142 131.825 168.158 135.725C171.174 139.625 175.928 142.664 180.214 140.873C177.304 152.21 167.75 160.879 157.425 161.582C153.306 161.862 149.111 161.008 145.098 162.217C144.103 162.623 143.053 162.878 141.984 162.973C139.716 162.973 137.842 160.864 136.406 158.816C133.05 153.994 130.359 148.522 126.58 144.13C125.333 142.679 123.859 141.296 122.098 141.031C120.337 140.767 118.711 141.606 117.139 142.422C114.547 143.767 111.894 145.158 109.883 147.456C107.873 149.754 106.603 153.193 107.434 156.307C107.88 157.985 108.908 159.496 108.946 161.257C108.946 164.054 106.512 166.102 106.021 168.816C105.913 169.961 105.872 171.112 105.9 172.262C105.681 175.996 103.247 179.065 100.692 181.4C99.7022 182.315 98.5987 183.29 98.3115 184.703C98.115 185.663 98.3115 186.684 98.183 187.659C97.8126 190.085 95.394 191.309 93.2549 191.627C90.7567 191.993 88.2061 191.69 85.8629 190.75C88.8862 189.337 90.6927 185.308 89.9973 181.68C89.0449 176.684 84.0262 173.101 84.4495 168.007C84.6862 166.447 85.1549 164.931 85.8402 163.51C86.9355 160.761 87.7312 157.903 88.2135 154.984C88.708 152.737 88.6588 150.405 88.0699 148.181C87.4274 146.224 86.1199 144.667 85.0012 143.012C83.4863 140.761 82.2908 138.312 81.4488 135.733C81.1437 134.971 81.027 134.146 81.1087 133.329C81.3524 132.366 81.8789 131.497 82.6203 130.835C85.3716 127.955 88.3193 124.955 91.9776 124.123C93.7255 123.832 95.5033 123.763 97.2684 123.919C100.35 124.017 103.435 123.886 106.497 123.526C109.022 123.231 113.3 123.269 115.431 121.621C117.419 120.11 118.545 118.182 121.002 117.215C123.509 116.297 126.203 116.009 128.847 116.376V116.376Z" fill="#A66477"/>
<path d="M629.988 76.9818C629.988 76.8835 629.988 76.7928 629.988 76.7021C629.988 76.6114 629.988 76.5056 629.943 76.4149H629.822C629.822 76.2108 629.822 76.0068 629.822 75.7876C629.52 68.781 619.83 53.8684 615.945 58.222C612.544 62.0465 617.676 71.7212 620.291 76.0748L620.525 76.4678L620.397 76.3847C620.397 76.3847 609.581 108.644 608.304 109.898C607.026 111.153 598.122 136.519 586.384 139.376C584.064 139.928 582.137 140.427 580.519 140.888L580.648 140.457C581.403 137.985 582.333 135.65 582.711 132.898C583.089 130.147 582.711 126.814 581.32 125.476C580.64 124.811 579.809 124.72 579.249 123.662C578.886 122.734 578.692 121.749 578.675 120.752L577.677 108.523L578.373 108.311C582.575 106.966 586.649 103.776 587.125 99.483C586.979 99.5385 586.83 99.5865 586.679 99.6266C586.735 99.377 586.777 99.1247 586.808 98.8708C583.278 100.262 580.005 96.6033 576.604 94.9631C571.003 92.2194 564.601 94.8044 558.819 95.4317C552.266 96.1498 546.045 93.4288 539.349 93.9201C535.706 94.1997 531.654 96.6713 531.851 100.262C531.964 102.234 533.363 103.905 533.937 105.794C535.388 110.367 532.161 114.955 529.334 118.855C527.475 121.417 525.691 124.539 525.373 127.547C518.866 120.745 511.829 112.884 511.013 109.929L492.185 77.6696C492.185 77.6696 491.739 78.1458 491.021 78.8487C490.907 78.501 490.771 78.0929 490.62 77.6847C488.217 70.9502 481.414 54.6317 472.79 57.6248C464.166 60.618 476.365 77.3446 481.671 84.0111L482.427 84.9332C481.982 85.0425 481.515 85.0215 481.081 84.8727L502.079 120.888C502.079 120.888 505.895 127.781 509.395 129.656C509.395 129.656 535.479 162.542 535.796 169.118C536.114 175.694 547.527 193.237 547.527 193.237C547.527 193.237 551.344 221.739 544.662 226.75H544.745H544.798H544.881H544.957H545.108H545.206H545.305H545.433H545.539H545.69H545.766C545.448 227.06 545.123 227.401 544.791 227.771C539.84 233.258 533.514 245.019 542.16 265.018C554.881 294.496 556.793 306.045 556.793 306.045C556.793 306.045 532.607 307.3 527.845 308.237C523.627 309.068 507.233 309.65 503.484 309.749C502.147 308.192 498.194 304.745 492.857 309.749C486.176 316.015 481.406 336.959 481.406 336.959C481.406 336.959 478.859 353.874 487.453 349.483C487.453 349.483 497.634 335.387 500.491 334.759C501.912 334.449 503.416 332.356 504.565 330.338L504.626 330.376C504.694 330.376 504.973 330.224 505.427 330.043C507.543 329.204 513.371 327.186 517.966 328.191C520.483 328.743 531.276 328.871 542.591 328.841C540.037 334.963 535.456 350.76 535.456 350.76C535.456 350.76 533.544 365.492 539.893 364.887C544.428 364.441 551.382 352.854 555.01 346.24C557.64 344.313 565.176 337.405 570.746 337.926L608.281 323.52C608.281 323.52 617.185 318.509 612.415 301.911C608.636 288.714 597.881 261.7 593.633 251.172L593.504 250.899C592.476 248.352 591.857 246.841 591.857 246.841C590.112 242.034 588.967 237.03 588.448 231.943C588.41 231.542 588.38 231.134 588.35 230.734C588.875 230.513 589.371 230.226 589.823 229.88C589.823 229.88 586.324 194.491 589.823 190.727L589.884 190.659V190.614L589.944 190.538L590.08 190.365L590.247 190.153C590.436 189.904 590.662 189.594 590.919 189.216C592.922 186.283 596.656 179.586 595.583 171.68C595.538 171.338 595.482 170.993 595.417 170.645C595.005 168.501 594.271 166.431 593.24 164.508C593.089 163.706 592.995 162.896 592.96 162.081C592.96 161.62 592.96 161.114 592.96 160.57V160.479C592.96 160.333 592.96 160.187 592.96 160.041V159.935C592.96 159.579 593.021 159.179 593.074 158.846V158.71C593.074 158.574 593.096 158.436 593.142 158.295V158.121C593.142 157.985 593.202 157.849 593.232 157.713V157.569C593.278 157.388 593.323 157.206 593.383 157.025V156.934C593.429 156.783 593.479 156.634 593.535 156.488L593.603 156.314L593.754 155.951L593.829 155.77C593.89 155.634 593.958 155.498 594.026 155.362L594.079 155.249C594.169 155.082 594.265 154.918 594.366 154.757L594.449 154.629L594.699 154.273L594.819 154.115L595.084 153.797L595.205 153.661C595.341 153.518 595.477 153.374 595.628 153.238C599.763 149.459 618.213 121.606 618.213 121.606C618.213 121.606 622.664 115.34 622.664 111.274C622.914 111.183 630.782 84.9558 629.988 76.9818ZM580.459 311.102C580.005 306.809 579.552 301.487 579.136 295.985L586.331 307.202C586.331 307.202 585.651 310.618 580.459 311.102Z" fill="url(#paint3_linear)"/>
<path d="M505.434 308.728C505.434 308.728 501.126 301.926 494.656 308.116C488.186 314.306 483.576 334.895 483.576 334.895C483.576 334.895 481.112 351.524 489.426 347.208C489.426 347.208 499.252 333.353 502.048 332.741C504.845 332.129 507.898 324.427 507.898 324.427L505.434 308.728Z" fill="#493545"/>
<path d="M551.608 325.349C551.608 325.349 545.758 322.575 543.914 324.737C542.07 326.899 535.91 348.44 535.91 348.44C535.91 348.44 534.065 362.604 540.218 361.985C546.37 361.365 557.149 339.189 557.149 339.189L551.608 325.349Z" fill="#493545"/>
<path opacity="0.05" d="M551.608 325.349C551.608 325.349 545.758 322.575 543.914 324.737C542.07 326.899 535.91 348.44 535.91 348.44C535.91 348.44 534.065 362.604 540.218 361.985C546.37 361.365 557.149 339.189 557.149 339.189L551.608 325.349Z" fill="black"/>
<path d="M571.925 283.483L585.16 304.11C585.16 304.11 584.238 308.728 576.233 307.806L548.834 325.047C548.834 325.047 546.454 346.036 554.065 344.132C555.297 343.822 563.891 334.895 570.073 335.515L606.406 321.351C606.406 321.351 615.023 316.423 610.405 300.112C605.787 283.801 590.519 245.979 590.519 245.979L566.385 259.478L571.925 283.483Z" fill="#3E3D77"/>
<path opacity="0.05" d="M571.925 283.483L585.16 304.11C585.16 304.11 584.238 308.728 576.233 307.806L548.834 325.047C548.834 325.047 546.454 346.036 554.065 344.132C555.297 343.822 563.891 334.895 570.073 335.515L606.406 321.351C606.406 321.351 615.023 316.423 610.405 300.112C605.787 283.801 590.519 245.979 590.519 245.979L566.385 259.478L571.925 283.483Z" fill="black"/>
<path d="M580.24 313.959C582.084 325.659 571.623 326.581 571.623 326.581C571.623 326.581 524.519 327.503 518.979 326.271C513.439 325.039 506.047 328.425 506.047 328.425C496.5 322.575 504.202 308.109 504.202 308.109C504.202 308.109 523.907 307.496 528.525 306.597C533.143 305.698 556.536 304.42 556.536 304.42C556.536 304.42 554.692 293.03 542.372 264.096C534.005 244.445 540.105 232.88 544.919 227.491C546.148 226.061 547.57 224.81 549.144 223.773L587.012 225.617C586.971 227.526 587.042 229.437 587.223 231.338C587.871 237.867 589.568 244.247 592.25 250.234C590.096 250.234 576.241 263.167 576.241 263.167C576.241 263.167 578.388 302.266 580.24 313.959Z" fill="#3E3D77"/>
<path opacity="0.1" d="M506.969 309.341C506.969 309.341 526.673 308.728 531.292 307.829C535.91 306.929 559.303 305.675 559.303 305.675C559.303 305.675 557.459 294.284 545.138 265.351C536.771 245.699 542.871 234.135 547.686 228.746C548.914 227.316 550.336 226.064 551.911 225.027L586.997 226.735C586.997 226.373 586.997 225.98 586.997 225.639L549.129 223.795C547.555 224.832 546.133 226.084 544.904 227.514C540.112 232.911 533.99 244.467 542.357 264.119C554.707 293.03 556.536 304.42 556.536 304.42C556.536 304.42 533.106 305.652 528.525 306.574C523.945 307.496 504.202 308.086 504.202 308.086C504.202 308.086 496.508 322.56 506.047 328.433C506.047 328.433 506.334 328.297 506.803 328.1C500.461 321.578 506.969 309.341 506.969 309.341Z" fill="black"/>
<path d="M563.301 110.783H544.216V159.111H563.301V110.783Z" fill="#493545"/>
<path opacity="0.1" d="M563.301 110.783H544.216V159.111H563.301V110.783Z" fill="black"/>
<path d="M574.215 103.693C574.873 103.874 575.614 103.897 576.06 104.804C576.337 105.529 576.487 106.296 576.506 107.072L577.707 122.007C577.724 122.985 577.914 123.952 578.267 124.864C578.773 125.877 579.612 125.998 580.27 126.648C581.592 127.963 581.978 131.258 581.615 133.942C581.252 136.625 580.338 138.922 579.62 141.349C578.592 144.826 577.911 148.733 576.468 151.666C575.024 154.599 572.401 156.201 570.708 153.737C569.015 151.273 569.242 146.299 568.925 142.225C568.396 135.423 565.743 129.558 565.561 122.71C565.41 117.17 566.899 112 567.829 106.747C568.494 103.141 568.532 98.765 569.499 95.5224C570.308 99.3772 571.85 103.043 574.215 103.693Z" fill="#493545"/>
<path opacity="0.1" d="M574.215 103.693C574.873 103.874 575.614 103.897 576.06 104.804C576.337 105.529 576.487 106.296 576.506 107.072L577.707 122.007C577.724 122.985 577.914 123.952 578.267 124.864C578.773 125.877 579.612 125.998 580.27 126.648C581.592 127.963 581.978 131.258 581.615 133.942C581.252 136.625 580.338 138.922 579.62 141.349C578.592 144.826 577.911 148.733 576.468 151.666C575.024 154.599 572.401 156.201 570.708 153.737C569.015 151.273 569.242 146.299 568.925 142.225C568.396 135.423 565.743 129.558 565.561 122.71C565.41 117.17 566.899 112 567.829 106.747C568.494 103.141 568.532 98.765 569.499 95.5224C570.308 99.3772 571.85 103.043 574.215 103.693Z" fill="black"/>
<path d="M493.424 82.4616L486.04 88.6216C486.04 88.6216 485.163 87.5937 483.855 85.9309C478.723 79.3778 466.925 62.9384 475.262 59.9982C483.598 57.058 490.189 73.0892 492.517 79.7103C493.107 81.3883 493.424 82.4616 493.424 82.4616Z" fill="#C77485"/>
<path d="M626.723 80.3075C623.647 84.9256 619.339 80.3075 619.339 80.3075C619.339 80.3075 618.787 79.4836 618.009 78.1533C615.476 73.8678 610.511 64.3669 613.799 60.6029C617.578 56.3022 626.942 70.9805 627.23 77.8661C627.319 78.7128 627.142 79.5661 626.723 80.3075V80.3075Z" fill="#C77485"/>
<path d="M550.989 130.177C550.989 130.177 557.149 149.882 555.297 155.725C553.445 161.567 568.539 168.37 568.539 168.37H585.78C585.78 168.37 591.94 155.747 590.398 152.051C588.856 148.355 575.621 145.589 575.621 145.589C575.621 145.589 567.927 145.589 568.237 124.962L550.989 130.177Z" fill="#C77485"/>
<path opacity="0.1" d="M493.424 82.4616L486.04 88.6217C486.04 88.6217 485.163 87.5937 483.855 85.9309C486.539 85.4547 490.703 81.5395 492.525 79.7104C493.107 81.3883 493.424 82.4616 493.424 82.4616Z" fill="black"/>
<path opacity="0.1" d="M626.723 80.3075C623.647 84.9256 619.339 80.3075 619.339 80.3075C619.339 80.3075 618.787 79.4836 618.008 78.1533L618.107 77.8434C620.102 79.272 626.308 78.0551 627.23 77.8434C627.324 78.6976 627.146 79.5596 626.723 80.3075V80.3075Z" fill="black"/>
<path opacity="0.1" d="M587.208 231.331C577.685 235.677 546.741 227.937 544.881 227.476C546.11 226.046 547.532 224.794 549.107 223.757L586.974 225.602C586.94 227.514 587.019 229.427 587.208 231.331V231.331Z" fill="black"/>
<path d="M554.995 147.108C554.995 147.108 547.61 149.572 537.142 140.026C537.142 140.026 513.711 116.935 512.199 111.395L494.059 79.6499C494.059 79.6499 486.365 87.9641 483.281 86.7321L503.598 122.135C503.598 122.135 507.294 128.938 510.68 130.752C510.68 130.752 535.925 163.079 536.227 169.541C536.53 176.004 547.602 193.312 547.602 193.312C547.602 193.312 551.299 221.324 544.829 226.252C544.829 226.252 580.844 235.488 588.539 229.328C588.539 229.328 585.152 194.559 588.539 190.848C588.539 190.848 599.007 178.536 591.925 164.991C591.925 164.991 590.413 157.607 594.389 153.911C598.364 150.215 616.247 122.816 616.247 122.816C616.247 122.816 620.556 116.656 620.556 112.657C620.556 112.657 628.56 85.5681 627.358 78.4859C627.358 78.4859 620.276 79.9976 618.122 78.4859C618.122 78.4859 607.654 110.231 606.422 111.425C605.19 112.619 596.596 137.592 585.183 140.366C573.77 143.14 571.948 144.364 571.948 144.364C571.948 144.364 594.109 158.219 583.338 164.371C572.568 170.524 554.995 147.108 554.995 147.108Z" fill="#FFAAC4"/>
<path opacity="0.1" d="M568.985 134.917C568.619 132.017 568.47 129.094 568.539 126.172L551.299 131.402C551.752 132.55 552.114 133.733 552.379 134.939C554.352 135.808 557.013 137.864 559.303 137.864C562.767 137.978 566.172 136.941 568.985 134.917V134.917Z" fill="black"/>
<path d="M558.993 136.95C567.834 136.95 575.001 129.782 575.001 120.941C575.001 112.1 567.834 104.933 558.993 104.933C550.152 104.933 542.984 112.1 542.984 120.941C542.984 129.782 550.152 136.95 558.993 136.95Z" fill="#C77485"/>
<path opacity="0.1" d="M539.946 96.2783C536.424 96.5504 532.493 98.9842 532.69 102.514C532.796 104.456 534.126 106.097 534.708 107.956C536.106 112.453 532.992 116.965 530.256 120.805C527.52 124.645 524.965 129.732 527.308 133.798C527.976 134.777 528.698 135.718 529.47 136.617C532.365 140.525 532.327 145.801 533.612 150.494C535.253 156.499 539.132 161.647 544.451 164.881C549.771 168.114 556.127 169.187 562.213 167.879C559.922 164.954 558.779 161.293 559 157.584C559.174 154.893 560.044 152.082 559 149.595C557.655 146.398 553.71 145.135 551.676 142.339C549.643 139.542 549.779 135.665 550.762 132.332C551.745 128.998 553.445 125.907 554.261 122.506C554.463 121.513 554.715 120.532 555.017 119.566C556.438 115.529 560.686 113.186 564.843 112.181C569 111.176 573.369 111.115 577.428 109.793C581.487 108.47 585.432 105.371 585.901 101.116C582.484 102.484 579.317 98.9161 576.022 97.276C570.595 94.5852 564.405 97.1173 558.812 97.737C552.44 98.4475 546.393 95.8097 539.946 96.2783Z" fill="black"/>
<path d="M539.636 95.666C536.114 95.9381 532.183 98.3719 532.38 101.902C532.486 103.844 533.816 105.484 534.398 107.344C535.796 111.841 532.682 116.353 529.946 120.193C527.21 124.033 524.655 129.119 526.998 133.186C527.666 134.165 528.388 135.106 529.16 136.005C532.055 139.913 532.017 145.188 533.302 149.882C534.943 155.887 538.822 161.035 544.141 164.268C549.461 167.502 555.817 168.575 561.903 167.266C559.612 164.342 558.469 160.68 558.691 156.972C558.864 154.281 559.734 151.469 558.691 148.983C557.345 145.785 553.4 144.523 551.367 141.727C549.333 138.93 549.469 135.053 550.452 131.719C551.435 128.386 553.135 125.295 553.952 121.894C554.153 120.901 554.405 119.92 554.707 118.953C556.128 114.917 560.376 112.574 564.533 111.569C568.69 110.564 573.059 110.503 577.118 109.18C581.177 107.858 585.122 104.759 585.591 100.503C582.174 101.871 579.007 98.3039 575.712 96.6637C570.285 93.973 564.095 96.505 558.502 97.1248C552.145 97.8277 546.121 95.1596 539.636 95.666Z" fill="#493545"/>
<path opacity="0.1" d="M574.85 156.503C574.85 156.503 581.26 162.225 582.522 164.749Z" fill="black"/>
<path opacity="0.1" d="M588.72 190.675C588.72 190.675 580.716 190.675 577.02 191.597C573.324 192.519 564.397 191.597 564.397 191.597" fill="black"/>
<g opacity="0.1">
<path opacity="0.1" d="M583.316 164.349C582.626 164.744 581.879 165.029 581.101 165.195C583.109 165.64 585.21 165.339 587.012 164.349C597.79 158.189 575.621 144.342 575.621 144.342H571.925C571.925 144.342 594.094 158.196 583.316 164.349Z" fill="black"/>
<path opacity="0.1" d="M627.411 79.0226C627.411 78.826 627.366 78.6371 627.336 78.4633C626.07 78.7256 624.79 78.9199 623.503 79.0452C624.803 79.1881 626.114 79.1805 627.411 79.0226V79.0226Z" fill="black"/>
<path opacity="0.1" d="M548.532 226.229C554.995 221.301 551.306 193.29 551.306 193.29C551.306 193.29 540.226 176.049 539.916 169.587C539.606 163.124 514.368 130.797 514.368 130.797C510.982 128.953 507.286 122.181 507.286 122.181C507.286 122.181 486.35 88.0094 483.273 86.7774L503.59 122.181C503.59 122.181 507.286 128.983 510.672 130.797C510.672 130.797 535.917 163.124 536.22 169.587C536.522 176.049 547.602 193.312 547.602 193.312C547.602 193.312 551.299 221.324 544.829 226.252C544.829 226.252 566.967 231.928 580.239 231.414C566.937 230.945 548.532 226.229 548.532 226.229Z" fill="black"/>
<path opacity="0.1" d="M555.176 147.35L554.995 147.116C554.784 147.178 554.569 147.226 554.352 147.259C554.639 147.297 554.911 147.327 555.176 147.35Z" fill="black"/>
</g>
<g opacity="0.1">
<path opacity="0.1" d="M627.336 78.4254L627.147 78.4632C626.822 87.9187 620.261 110.133 620.261 110.133C620.261 114.131 615.953 120.291 615.953 120.291C615.953 120.291 598.1 147.69 594.094 151.386C590.088 155.082 591.63 162.467 591.63 162.467L591.668 162.542C591.547 160.056 591.849 156.201 594.396 153.843C598.395 150.147 616.255 122.748 616.255 122.748C616.255 122.748 620.563 116.588 620.563 112.589C620.563 112.635 628.568 85.5454 627.336 78.4254Z" fill="black"/>
<path opacity="0.1" d="M588.244 188.362C588.705 190.977 588.395 188.21 588.554 190.826C588.554 190.826 596.112 181.96 594.049 171C594.668 180.796 588.244 188.362 588.244 188.362Z" fill="black"/>
</g>
<path opacity="0.1" d="M355.084 500C533.609 500 678.332 486.099 678.332 468.95C678.332 451.802 533.609 437.901 355.084 437.901C176.559 437.901 31.8358 451.802 31.8358 468.95C31.8358 486.099 176.559 500 355.084 500Z" fill="#218352"/>
<path d="M229.781 437.447C229.781 437.447 218.776 400.071 231.845 372.566C237.403 361.063 239.079 348.067 236.622 335.53C235.408 329.587 233.652 323.768 231.376 318.146" stroke="#535461" stroke-width="2" stroke-miterlimit="10"/>
<path d="M239.524 300.777C239.524 305.357 231.21 318.637 231.21 318.637C231.21 318.637 222.896 305.357 222.896 300.777C222.811 299.637 222.963 298.491 223.342 297.412C223.72 296.333 224.317 295.343 225.095 294.505C225.873 293.668 226.816 292.999 227.864 292.542C228.912 292.085 230.044 291.849 231.187 291.849C232.331 291.849 233.462 292.085 234.51 292.542C235.558 292.999 236.501 293.668 237.279 294.505C238.058 295.343 238.655 296.333 239.033 297.412C239.411 298.491 239.563 299.637 239.479 300.777H239.524Z" fill="#218352"/>
<path d="M253.212 326.143C250.726 329.99 236.546 336.626 236.546 336.626C236.546 336.626 236.803 320.973 239.29 317.126C239.841 316.127 240.593 315.252 241.497 314.556C242.401 313.861 243.439 313.358 244.545 313.081C245.652 312.803 246.804 312.756 247.929 312.943C249.055 313.13 250.13 313.546 251.088 314.167C252.045 314.787 252.865 315.598 253.496 316.548C254.127 317.499 254.555 318.569 254.754 319.693C254.954 320.816 254.92 321.968 254.654 323.078C254.389 324.188 253.898 325.231 253.212 326.143V326.143Z" fill="#218352"/>
<path d="M252.615 369.505C248.526 371.568 232.963 370.14 232.963 370.14C232.963 370.14 241.089 356.754 245.178 354.691C246.158 354.102 247.249 353.722 248.383 353.574C249.517 353.427 250.669 353.514 251.767 353.832C252.865 354.149 253.886 354.69 254.766 355.42C255.646 356.15 256.366 357.054 256.881 358.075C257.396 359.096 257.695 360.212 257.759 361.353C257.823 362.495 257.651 363.637 257.253 364.709C256.856 365.781 256.241 366.76 255.448 367.584C254.656 368.408 253.701 369.059 252.645 369.497L252.615 369.505Z" fill="#218352"/>
<path d="M244.777 402.202C241.096 404.923 225.481 406.155 225.481 406.155C225.481 406.155 231.225 391.591 234.914 388.862C236.689 387.783 238.803 387.408 240.841 387.81C242.878 388.213 244.692 389.363 245.924 391.035C247.156 392.707 247.718 394.779 247.499 396.845C247.28 398.91 246.295 400.819 244.739 402.195L244.777 402.202Z" fill="#218352"/>
<path d="M219.117 337.518C222.404 340.708 237.71 344.018 237.71 344.018C237.71 344.018 233.931 328.818 230.673 325.621C229.913 324.769 228.986 324.083 227.949 323.605C226.912 323.127 225.787 322.868 224.646 322.844C223.504 322.819 222.37 323.031 221.313 323.464C220.257 323.897 219.301 324.544 218.505 325.363C217.71 326.182 217.091 327.156 216.689 328.225C216.286 329.293 216.108 330.433 216.165 331.574C216.223 332.714 216.514 333.83 217.022 334.853C217.53 335.876 218.243 336.783 219.117 337.518Z" fill="#218352"/>
<path d="M210.447 375.884C214.536 377.948 230.099 376.519 230.099 376.519C230.099 376.519 222.004 363.133 217.915 361.108C215.976 360.303 213.805 360.261 211.836 360.991C209.868 361.721 208.249 363.168 207.303 365.043C206.358 366.917 206.157 369.079 206.74 371.096C207.323 373.113 208.647 374.834 210.447 375.915V375.884Z" fill="#218352"/>
<path d="M207.121 414.326C210.802 417.047 226.418 418.279 226.418 418.279C226.418 418.279 220.674 403.714 216.985 400.986C216.121 400.221 215.106 399.645 214.007 399.293C212.907 398.942 211.747 398.824 210.599 398.946C209.451 399.067 208.342 399.427 207.34 400.001C206.339 400.575 205.469 401.352 204.784 402.281C204.099 403.21 203.615 404.271 203.363 405.398C203.111 406.524 203.096 407.691 203.32 408.823C203.543 409.955 204 411.029 204.661 411.975C205.322 412.921 206.173 413.719 207.159 414.319L207.121 414.326Z" fill="#218352"/>
<path opacity="0.1" d="M239.524 300.777C239.524 305.357 231.21 318.637 231.21 318.637C231.21 318.637 222.896 305.357 222.896 300.777C222.811 299.637 222.963 298.491 223.342 297.412C223.72 296.333 224.317 295.343 225.095 294.505C225.873 293.668 226.816 292.999 227.864 292.542C228.912 292.085 230.044 291.849 231.187 291.849C232.331 291.849 233.462 292.085 234.51 292.542C235.558 292.999 236.501 293.668 237.279 294.505C238.058 295.343 238.655 296.333 239.033 297.412C239.411 298.491 239.563 299.637 239.479 300.777H239.524Z" fill="#218352"/>
<path opacity="0.1" d="M253.212 326.143C250.726 329.99 236.546 336.626 236.546 336.626C236.546 336.626 236.803 320.973 239.29 317.126C239.841 316.127 240.593 315.252 241.497 314.556C242.401 313.861 243.439 313.358 244.545 313.081C245.652 312.803 246.804 312.756 247.929 312.943C249.055 313.13 250.13 313.546 251.088 314.167C252.045 314.787 252.865 315.598 253.496 316.548C254.127 317.499 254.555 318.569 254.754 319.693C254.954 320.816 254.92 321.968 254.654 323.078C254.389 324.188 253.898 325.231 253.212 326.143V326.143Z" fill="#218352"/>
<path opacity="0.1" d="M252.615 369.505C248.526 371.568 232.963 370.14 232.963 370.14C232.963 370.14 241.089 356.754 245.178 354.691C246.158 354.102 247.249 353.722 248.383 353.574C249.517 353.427 250.669 353.514 251.767 353.832C252.865 354.149 253.886 354.69 254.766 355.42C255.646 356.15 256.366 357.054 256.881 358.075C257.396 359.096 257.695 360.212 257.759 361.353C257.823 362.495 257.651 363.637 257.253 364.709C256.856 365.781 256.241 366.76 255.448 367.584C254.656 368.408 253.701 369.059 252.645 369.497L252.615 369.505Z" fill="#218352"/>
<path opacity="0.1" d="M244.777 402.202C241.096 404.923 225.481 406.155 225.481 406.155C225.481 406.155 231.225 391.591 234.914 388.862C236.689 387.783 238.803 387.408 240.841 387.81C242.878 388.213 244.692 389.363 245.924 391.035C247.156 392.707 247.718 394.779 247.499 396.845C247.28 398.91 246.295 400.819 244.739 402.195L244.777 402.202Z" fill="#218352"/>
<path opacity="0.1" d="M219.117 337.518C222.404 340.708 237.71 344.018 237.71 344.018C237.71 344.018 233.931 328.818 230.673 325.621C229.913 324.769 228.986 324.083 227.949 323.605C226.912 323.127 225.787 322.868 224.646 322.844C223.504 322.819 222.37 323.031 221.313 323.464C220.257 323.897 219.301 324.544 218.505 325.363C217.71 326.182 217.091 327.156 216.689 328.225C216.286 329.293 216.108 330.433 216.165 331.574C216.223 332.714 216.514 333.83 217.022 334.853C217.53 335.876 218.243 336.783 219.117 337.518Z" fill="#218352"/>
<path opacity="0.1" d="M210.447 375.884C214.536 377.948 230.099 376.519 230.099 376.519C230.099 376.519 222.004 363.133 217.915 361.108C215.976 360.303 213.805 360.261 211.836 360.991C209.868 361.721 208.249 363.168 207.303 365.043C206.358 366.917 206.157 369.079 206.74 371.096C207.323 373.113 208.647 374.834 210.447 375.915V375.884Z" fill="#218352"/>
<path opacity="0.1" d="M207.121 414.326C210.802 417.047 226.418 418.279 226.418 418.279C226.418 418.279 220.674 403.714 216.985 400.986C216.121 400.221 215.106 399.645 214.007 399.293C212.907 398.942 211.747 398.824 210.599 398.946C209.451 399.067 208.342 399.427 207.34 400.001C206.339 400.575 205.469 401.352 204.784 402.281C204.099 403.21 203.615 404.271 203.363 405.398C203.111 406.524 203.096 407.691 203.32 408.823C203.543 409.955 204 411.029 204.661 411.975C205.322 412.921 206.173 413.719 207.159 414.319L207.121 414.326Z" fill="#218352"/>
<path d="M452.481 437.984C452.481 437.984 441.476 400.608 454.544 373.103C460.102 361.6 461.778 348.604 459.321 336.067C458.107 330.124 456.351 324.305 454.075 318.683" stroke="#535461" stroke-width="2" stroke-miterlimit="10"/>
<path d="M462.208 301.306C462.208 305.886 453.894 319.166 453.894 319.166C453.894 319.166 445.58 305.886 445.58 301.306C445.735 299.213 446.676 297.256 448.213 295.828C449.751 294.399 451.773 293.606 453.871 293.606C455.97 293.606 457.991 294.399 459.529 295.828C461.067 297.256 462.008 299.213 462.163 301.306H462.208Z" fill="#218352"/>
<path d="M475.919 326.672C473.432 330.519 459.253 337.155 459.253 337.155C459.253 337.155 459.51 321.502 461.997 317.655C462.548 316.656 463.299 315.781 464.204 315.086C465.108 314.39 466.145 313.887 467.252 313.61C468.359 313.332 469.511 313.285 470.636 313.472C471.762 313.659 472.837 314.075 473.794 314.696C474.752 315.316 475.572 316.127 476.203 317.077C476.833 318.028 477.262 319.098 477.461 320.222C477.66 321.345 477.626 322.498 477.361 323.607C477.096 324.717 476.605 325.76 475.919 326.672V326.672Z" fill="#218352"/>
<path d="M475.345 370.034C471.256 372.098 455.693 370.669 455.693 370.669C455.693 370.669 463.818 357.283 467.907 355.22C468.889 354.626 469.982 354.241 471.119 354.091C472.257 353.94 473.413 354.026 474.515 354.344C475.617 354.661 476.642 355.204 477.524 355.937C478.407 356.669 479.128 357.577 479.643 358.602C480.157 359.627 480.454 360.748 480.515 361.894C480.575 363.039 480.398 364.185 479.995 365.258C479.591 366.332 478.969 367.311 478.169 368.133C477.369 368.955 476.407 369.602 475.345 370.034V370.034Z" fill="#218352"/>
<path d="M467.476 402.732C463.796 405.453 448.18 406.685 448.18 406.685C448.18 406.685 453.924 392.12 457.613 389.391C459.388 388.313 461.502 387.937 463.54 388.34C465.578 388.742 467.391 389.892 468.623 391.564C469.856 393.236 470.417 395.309 470.198 397.374C469.979 399.439 468.994 401.348 467.439 402.724L467.476 402.732Z" fill="#218352"/>
<path d="M441.831 338.047C445.119 341.237 460.424 344.547 460.424 344.547C460.424 344.547 456.645 329.348 453.388 326.15C452.628 325.298 451.7 324.612 450.663 324.134C449.626 323.656 448.502 323.397 447.36 323.373C446.218 323.349 445.084 323.56 444.028 323.993C442.971 324.427 442.015 325.073 441.22 325.892C440.424 326.711 439.806 327.685 439.403 328.754C439.001 329.822 438.822 330.962 438.88 332.103C438.937 333.243 439.229 334.359 439.736 335.382C440.244 336.405 440.957 337.312 441.831 338.047V338.047Z" fill="#218352"/>
<path d="M433.146 376.413C437.235 378.477 452.798 377.048 452.798 377.048C452.798 377.048 444.673 363.662 440.584 361.599C438.645 360.794 436.474 360.752 434.505 361.482C432.537 362.212 430.918 363.659 429.972 365.534C429.027 367.408 428.826 369.571 429.409 371.587C429.992 373.604 431.316 375.325 433.116 376.406L433.146 376.413Z" fill="#218352"/>
<path d="M429.828 414.855C433.509 417.576 449.125 418.808 449.125 418.808C449.125 418.808 443.38 404.243 439.692 401.515C437.917 400.436 435.802 400.061 433.765 400.463C431.727 400.865 429.914 402.015 428.681 403.687C427.449 405.359 426.887 407.432 427.107 409.498C427.326 411.563 428.31 413.472 429.866 414.848L429.828 414.855Z" fill="#218352"/>
<path opacity="0.1" d="M462.208 301.306C462.208 305.886 453.894 319.166 453.894 319.166C453.894 319.166 445.58 305.886 445.58 301.306C445.735 299.213 446.676 297.256 448.213 295.828C449.751 294.399 451.773 293.606 453.871 293.606C455.97 293.606 457.991 294.399 459.529 295.828C461.067 297.256 462.008 299.213 462.163 301.306H462.208Z" fill="#218352"/>
<path opacity="0.1" d="M475.919 326.672C473.432 330.519 459.253 337.155 459.253 337.155C459.253 337.155 459.51 321.502 461.997 317.655C462.548 316.656 463.299 315.781 464.204 315.086C465.108 314.39 466.145 313.887 467.252 313.61C468.359 313.332 469.511 313.285 470.636 313.472C471.762 313.659 472.837 314.075 473.794 314.696C474.752 315.316 475.572 316.127 476.203 317.077C476.833 318.028 477.262 319.098 477.461 320.222C477.66 321.345 477.626 322.498 477.361 323.607C477.096 324.717 476.605 325.76 475.919 326.672V326.672Z" fill="#218352"/>
<path opacity="0.1" d="M475.345 370.034C471.256 372.098 455.693 370.669 455.693 370.669C455.693 370.669 463.818 357.283 467.907 355.22C468.889 354.626 469.982 354.241 471.119 354.091C472.257 353.94 473.413 354.026 474.515 354.344C475.617 354.661 476.642 355.204 477.524 355.937C478.407 356.669 479.128 357.577 479.643 358.602C480.157 359.627 480.454 360.748 480.515 361.894C480.575 363.039 480.398 364.185 479.995 365.258C479.591 366.332 478.969 367.311 478.169 368.133C477.369 368.955 476.407 369.602 475.345 370.034V370.034Z" fill="#218352"/>
<path opacity="0.1" d="M467.476 402.732C463.796 405.453 448.18 406.685 448.18 406.685C448.18 406.685 453.924 392.12 457.613 389.391C459.388 388.313 461.502 387.937 463.54 388.34C465.578 388.742 467.391 389.892 468.623 391.564C469.856 393.236 470.417 395.309 470.198 397.374C469.979 399.439 468.994 401.348 467.439 402.724L467.476 402.732Z" fill="#218352"/>
<path opacity="0.1" d="M441.831 338.047C445.119 341.237 460.424 344.547 460.424 344.547C460.424 344.547 456.645 329.348 453.388 326.15C452.628 325.298 451.7 324.612 450.663 324.134C449.626 323.656 448.502 323.397 447.36 323.373C446.218 323.349 445.084 323.56 444.028 323.993C442.971 324.427 442.015 325.073 441.22 325.892C440.424 326.711 439.806 327.685 439.403 328.754C439.001 329.822 438.822 330.962 438.88 332.103C438.937 333.243 439.229 334.359 439.736 335.382C440.244 336.405 440.957 337.312 441.831 338.047V338.047Z" fill="#218352"/>
<path opacity="0.1" d="M433.146 376.413C437.235 378.477 452.798 377.048 452.798 377.048C452.798 377.048 444.673 363.662 440.584 361.599C438.645 360.794 436.474 360.752 434.505 361.482C432.537 362.212 430.918 363.659 429.972 365.534C429.027 367.408 428.826 369.571 429.409 371.587C429.992 373.604 431.316 375.325 433.116 376.406L433.146 376.413Z" fill="#218352"/>
<path opacity="0.1" d="M429.828 414.855C433.509 417.576 449.125 418.808 449.125 418.808C449.125 418.808 443.38 404.243 439.692 401.515C437.917 400.436 435.802 400.061 433.765 400.463C431.727 400.865 429.914 402.015 428.681 403.687C427.449 405.359 426.887 407.432 427.107 409.498C427.326 411.563 428.31 413.472 429.866 414.848L429.828 414.855Z" fill="#218352"/>
<path opacity="0.5" d="M506.334 11.5718H501.587C502.037 11.5933 502.486 11.5232 502.908 11.366C503.329 11.2087 503.715 10.9675 504.041 10.6569C504.366 10.3463 504.626 9.97288 504.803 9.55914C504.98 9.14541 505.071 8.70001 505.071 8.24993C505.071 7.79985 504.98 7.35446 504.803 6.94072C504.626 6.52698 504.366 6.15351 504.041 5.84293C503.715 5.53236 503.329 5.29113 502.908 5.13387C502.486 4.97661 502.037 4.90658 501.587 4.92803H463.1C462.247 4.96876 461.441 5.33653 460.852 5.95504C460.262 6.57356 459.933 7.39534 459.933 8.24993C459.933 9.10451 460.262 9.9263 460.852 10.5448C461.441 11.1633 462.247 11.5311 463.1 11.5718H467.847C466.993 11.6126 466.188 11.9803 465.598 12.5988C465.009 13.2174 464.68 14.0391 464.68 14.8937C464.68 15.7483 465.009 16.5701 465.598 17.1886C466.188 17.8071 466.993 18.1749 467.847 18.2156H461.203C460.753 18.1942 460.304 18.2642 459.882 18.4215C459.461 18.5787 459.075 18.8199 458.75 19.1305C458.424 19.4411 458.165 19.8146 457.987 20.2283C457.81 20.642 457.719 21.0874 457.719 21.5375C457.719 21.9876 457.81 22.433 457.987 22.8467C458.165 23.2605 458.424 23.6339 458.75 23.9445C459.075 24.2551 459.461 24.4963 459.882 24.6536C460.304 24.8108 460.753 24.8809 461.203 24.8594H499.66C500.109 24.8809 500.559 24.8108 500.98 24.6536C501.402 24.4963 501.788 24.2551 502.113 23.9445C502.439 23.6339 502.698 23.2605 502.876 22.8467C503.053 22.433 503.144 21.9876 503.144 21.5375C503.144 21.0874 503.053 20.642 502.876 20.2283C502.698 19.8146 502.439 19.4411 502.113 19.1305C501.788 18.8199 501.402 18.5787 500.98 18.4215C500.559 18.2642 500.109 18.1942 499.66 18.2156H506.334C507.188 18.1749 507.993 17.8071 508.582 17.1886C509.172 16.5701 509.501 15.7483 509.501 14.8937C509.501 14.0391 509.172 13.2174 508.582 12.5988C507.993 11.9803 507.188 11.6126 506.334 11.5718Z" fill="#DEE3F3"/>
<path opacity="0.5" d="M283.952 30.9514H280.339C280.683 30.9702 281.027 30.9188 281.35 30.8002C281.673 30.6816 281.968 30.4985 282.218 30.2618C282.468 30.0252 282.667 29.7401 282.803 29.424C282.939 29.1079 283.01 28.7673 283.01 28.4232C283.01 28.079 282.939 27.7385 282.803 27.4223C282.667 27.1062 282.468 26.8211 282.218 26.5845C281.968 26.3479 281.673 26.1647 281.35 26.0461C281.027 25.9275 280.683 25.8761 280.339 25.8949H251.073C250.427 25.9303 249.818 26.2121 249.373 26.6823C248.928 27.1526 248.68 27.7756 248.68 28.4232C248.68 29.0708 248.928 29.6937 249.373 30.164C249.818 30.6343 250.427 30.9161 251.073 30.9514H254.686C254.343 30.9326 253.999 30.9841 253.676 31.1027C253.352 31.2212 253.057 31.4044 252.807 31.641C252.557 31.8777 252.358 32.1627 252.222 32.4789C252.086 32.795 252.016 33.1355 252.016 33.4797C252.016 33.8239 252.086 34.1644 252.222 34.4805C252.358 34.7967 252.557 35.0818 252.807 35.3184C253.057 35.555 253.352 35.7382 253.676 35.8567C253.999 35.9753 254.343 36.0268 254.686 36.008H249.63C249.286 35.9892 248.942 36.0406 248.619 36.1592C248.296 36.2778 248 36.4609 247.75 36.6976C247.501 36.9342 247.302 37.2193 247.165 37.5354C247.029 37.8515 246.959 38.1921 246.959 38.5362C246.959 38.8804 247.029 39.2209 247.165 39.5371C247.302 39.8532 247.501 40.1383 247.75 40.3749C248 40.6115 248.296 40.7947 248.619 40.9133C248.942 41.0318 249.286 41.0833 249.63 41.0645H278.896C279.239 41.0833 279.583 41.0318 279.906 40.9133C280.229 40.7947 280.525 40.6115 280.775 40.3749C281.025 40.1383 281.224 39.8532 281.36 39.5371C281.496 39.2209 281.566 38.8804 281.566 38.5362C281.566 38.1921 281.496 37.8515 281.36 37.5354C281.224 37.2193 281.025 36.9342 280.775 36.6976C280.525 36.4609 280.229 36.2778 279.906 36.1592C279.583 36.0406 279.239 35.9892 278.896 36.008H283.952C284.599 35.9726 285.207 35.6908 285.652 35.2205C286.098 34.7503 286.346 34.1273 286.346 33.4797C286.346 32.8321 286.098 32.2091 285.652 31.7388C285.207 31.2686 284.599 30.9868 283.952 30.9514V30.9514Z" fill="#DEE3F3"/>
<path d="M38.3057 389.074C38.3057 389.074 51.5328 415.037 40.7546 429.239C29.9764 443.441 41.7372 482.147 41.7372 482.147" stroke="#218352" stroke-miterlimit="10"/>
<path d="M42.2512 380.956C42.2512 385.96 38.5778 390.026 38.5778 390.026C38.5778 390.026 34.9045 385.967 34.9045 380.956C34.9045 375.945 38.5778 371.886 38.5778 371.886C38.5778 371.886 42.2512 375.952 42.2512 380.956Z" fill="#218352"/>
<path d="M45.1612 389.074C45.1612 389.074 31.934 415.037 42.7122 429.239C53.4904 443.441 41.7297 482.147 41.7297 482.147" stroke="#218352" stroke-miterlimit="10"/>
<path d="M41.2459 380.956C41.2459 385.96 44.9193 390.026 44.9193 390.026C44.9193 390.026 48.5926 385.967 48.5926 380.956C48.5926 375.945 44.9193 371.886 44.9193 371.886C44.9193 371.886 41.2459 375.952 41.2459 380.956Z" fill="#218352"/>
<path opacity="0.1" d="M41.2459 380.956C41.2459 385.96 44.9193 390.026 44.9193 390.026C44.9193 390.026 48.5926 385.967 48.5926 380.956C48.5926 375.945 44.9193 371.886 44.9193 371.886C44.9193 371.886 41.2459 375.952 41.2459 380.956Z" fill="black"/>
<path d="M50.5654 389.074C50.5654 389.074 63.7925 415.037 53.0143 429.239C42.2361 443.441 53.9968 482.147 53.9968 482.147" stroke="#218352" stroke-miterlimit="10"/>
<path d="M54.473 380.956C54.473 385.96 50.7997 390.026 50.7997 390.026C50.7997 390.026 47.1263 385.967 47.1263 380.956C47.1263 375.945 50.7997 371.886 50.7997 371.886C50.7997 371.886 54.473 375.952 54.473 380.956Z" fill="#218352"/>
<path d="M52.4096 401.757C48.9403 405.362 43.4756 405.74 43.4756 405.74C43.4756 405.74 43.6419 400.268 47.1112 396.67C50.5805 393.072 56.0452 392.687 56.0452 392.687C56.0452 392.687 55.8562 398.144 52.4096 401.757Z" fill="#218352"/>
<path d="M52.7573 419.67C49.288 423.275 43.8233 423.653 43.8233 423.653C43.8233 423.653 43.9896 418.181 47.4589 414.583C50.9282 410.985 56.3928 410.6 56.3928 410.6C56.3928 410.6 56.2266 416.057 52.7573 419.67Z" fill="#218352"/>
<path d="M33.937 429.518C37.2173 433.298 37.1039 438.77 37.1039 438.77C37.1039 438.77 31.6695 438.112 28.3892 434.333C25.1088 430.554 25.2222 425.082 25.2222 425.082C25.2222 425.082 30.6567 425.739 33.937 429.518Z" fill="#218352"/>
<path d="M36.9603 391.341C41.1325 394.107 42.4855 399.413 42.4855 399.413C42.4855 399.413 37.0737 400.237 32.9015 397.471C28.7293 394.705 27.3763 389.399 27.3763 389.399C27.3763 389.399 32.8108 388.56 36.9603 391.341Z" fill="#218352"/>
<path opacity="0.1" d="M36.9603 391.341C41.1325 394.107 42.4855 399.413 42.4855 399.413C42.4855 399.413 37.0737 400.237 32.9015 397.471C28.7293 394.705 27.3763 389.399 27.3763 389.399C27.3763 389.399 32.8108 388.56 36.9603 391.341Z" fill="black"/>
<path d="M57.4057 389.074C57.4057 389.074 44.1785 415.037 54.9567 429.239C65.735 443.441 53.9742 482.147 53.9742 482.147" stroke="#218352" stroke-miterlimit="10"/>
<path d="M53.4904 380.956C53.4904 385.96 57.1638 390.026 57.1638 390.026C57.1638 390.026 60.8372 385.967 60.8372 380.956C60.8372 375.945 57.1638 371.886 57.1638 371.886C57.1638 371.886 53.4904 375.952 53.4904 380.956Z" fill="#218352"/>
<path opacity="0.1" d="M53.4904 380.956C53.4904 385.96 57.1638 390.026 57.1638 390.026C57.1638 390.026 60.8372 385.967 60.8372 380.956C60.8372 375.945 57.1638 371.886 57.1638 371.886C57.1638 371.886 53.4904 375.952 53.4904 380.956Z" fill="black"/>
<path d="M54.5486 402.142C51.034 405.71 50.7694 411.212 50.7694 411.212C50.7694 411.212 56.2341 410.902 59.7488 407.335C63.2634 403.767 63.5279 398.265 63.5279 398.265C63.5279 398.265 58.0632 398.574 54.5486 402.142Z" fill="#218352"/>
<path opacity="0.1" d="M54.5486 402.142C51.034 405.71 50.7694 411.212 50.7694 411.212C50.7694 411.212 56.2341 410.902 59.7488 407.335C63.2634 403.767 63.5279 398.265 63.5279 398.265C63.5279 398.265 58.0632 398.574 54.5486 402.142Z" fill="black"/>
<path d="M61.4343 426.941C57.9196 430.508 57.6551 436.011 57.6551 436.011C57.6551 436.011 63.1198 435.701 66.6344 432.134C70.149 428.566 70.4136 423.064 70.4136 423.064C70.4136 423.064 64.9262 423.373 61.4343 426.941Z" fill="#218352"/>
<path d="M51.3212 421.491C51.3212 421.491 59.2801 408.945 70.4589 408.642" stroke="#218352" stroke-miterlimit="10"/>
<path d="M45.1007 413.91C45.1007 413.91 37.1417 401.364 25.9629 401.061" stroke="#218352" stroke-miterlimit="10"/>
<path d="M44.0652 431.824C44.0652 431.824 52.0241 419.277 63.2029 418.974" stroke="#218352" stroke-miterlimit="10"/>
<path d="M70.0735 410.638C71.2131 410.638 72.1369 409.714 72.1369 408.574C72.1369 407.435 71.2131 406.511 70.0735 406.511C68.9339 406.511 68.01 407.435 68.01 408.574C68.01 409.714 68.9339 410.638 70.0735 410.638Z" fill="#218352"/>
<path d="M26.1594 403.23C27.299 403.23 28.2229 402.307 28.2229 401.167C28.2229 400.027 27.299 399.104 26.1594 399.104C25.0198 399.104 24.096 400.027 24.096 401.167C24.096 402.307 25.0198 403.23 26.1594 403.23Z" fill="#218352"/>
<path d="M49.9229 435.935C49.9229 435.935 41.964 423.389 30.7852 423.086" stroke="#218352" stroke-miterlimit="10"/>
<path d="M30.9817 425.271C32.1213 425.271 33.0451 424.347 33.0451 423.207C33.0451 422.068 32.1213 421.144 30.9817 421.144C29.8421 421.144 28.9182 422.068 28.9182 423.207C28.9182 424.347 29.8421 425.271 30.9817 425.271Z" fill="#218352"/>
<path d="M63.3541 421.144C64.4937 421.144 65.4175 420.22 65.4175 419.08C65.4175 417.941 64.4937 417.017 63.3541 417.017C62.2145 417.017 61.2906 417.941 61.2906 419.08C61.2906 420.22 62.2145 421.144 63.3541 421.144Z" fill="#218352"/>
<path d="M93.9352 467.038C93.9352 467.038 74.7521 463.198 69.6275 458.081C64.503 452.964 41.4953 444.015 38.9331 450.41C36.3708 456.804 4.39897 478.549 26.1443 482.389C47.8897 486.229 77.3068 487.506 83.7012 484.944C90.0955 482.382 93.9352 467.038 93.9352 467.038Z" fill="#A8A8A8"/>
<path opacity="0.2" d="M26.1443 480.008C47.8897 483.848 77.3068 485.125 83.7012 482.563C88.5687 480.613 91.9549 471.225 93.2927 466.902L93.9352 467.038C93.9352 467.038 90.0955 482.389 83.7012 484.944C77.3068 487.498 47.8897 486.221 26.1443 482.389C19.8709 481.278 18.072 478.678 18.7523 475.39C19.2813 477.506 21.4733 479.184 26.1443 480.008Z" fill="black"/>
<path d="M676.344 394.954C676.344 394.954 682.678 403.268 673.419 415.74C664.16 428.211 656.526 438.8 659.617 446.6C659.617 446.6 673.585 423.373 684.953 423.048C696.321 422.723 688.853 408.914 676.344 394.954Z" fill="#218352"/>
<path opacity="0.1" d="M676.344 394.954C676.896 395.755 677.331 396.63 677.636 397.554C688.732 410.585 694.635 422.746 683.978 423.056C674.046 423.343 662.134 441.098 659.277 445.587C659.371 445.934 659.485 446.274 659.617 446.608C659.617 446.608 673.585 423.381 684.953 423.056C696.321 422.731 688.853 408.914 676.344 394.954Z" fill="black"/>
<path d="M688.12 405.505C688.12 408.423 687.795 410.796 687.364 410.796C686.933 410.796 686.608 408.431 686.608 405.505C686.608 402.58 687.016 403.994 687.417 403.994C687.817 403.994 688.12 402.596 688.12 405.505Z" fill="#FFD037"/>
<path d="M692.163 408.99C689.601 410.388 687.371 411.257 687.182 410.872C686.994 410.486 688.906 409.096 691.468 407.705C694.03 406.314 693.018 407.327 693.214 407.705C693.411 408.083 694.718 407.592 692.163 408.99Z" fill="#FFD037"/>
<path d="M642.891 394.954C642.891 394.954 636.557 403.268 645.816 415.74C655.075 428.211 662.709 438.8 659.617 446.6C659.617 446.6 645.649 423.373 634.282 423.048C622.914 422.723 630.382 408.914 642.891 394.954Z" fill="#218352"/>
<path opacity="0.1" d="M642.891 394.954C642.339 395.755 641.903 396.63 641.598 397.554C630.502 410.585 624.599 422.746 635.257 423.056C645.188 423.343 657.1 441.098 659.957 445.587C659.863 445.934 659.749 446.274 659.617 446.608C659.617 446.608 645.649 423.381 634.282 423.056C622.914 422.731 630.382 408.914 642.891 394.954Z" fill="black"/>
<path d="M631.115 405.505C631.115 408.423 631.44 410.796 631.871 410.796C632.301 410.796 632.626 408.431 632.626 405.505C632.626 402.58 632.218 403.994 631.818 403.994C631.417 403.994 631.115 402.596 631.115 405.505Z" fill="#FFD037"/>
<path d="M627.071 408.99C629.633 410.388 631.863 411.257 632.052 410.872C632.241 410.486 630.329 409.096 627.766 407.705C625.204 406.314 626.217 407.327 626.02 407.705C625.824 408.083 624.509 407.592 627.071 408.99Z" fill="#FFD037"/>
<path d="M633.133 445.512C633.133 445.512 650.842 444.968 656.178 441.166C661.514 437.364 683.388 432.852 684.741 438.898C686.094 444.945 711.354 469.215 691.362 469.374C671.371 469.532 644.909 466.26 639.58 463.017C634.251 459.774 633.133 445.512 633.133 445.512Z" fill="#A8A8A8"/>
<path opacity="0.2" d="M691.718 467.28C671.726 467.439 645.264 464.166 639.935 460.923C635.876 458.452 634.259 449.586 633.722 445.497H633.133C633.133 445.497 634.251 459.782 639.58 463.025C644.909 466.267 671.371 469.547 691.362 469.381C697.137 469.336 699.125 467.28 699.019 464.241C698.218 466.093 696.049 467.242 691.718 467.28Z" fill="black"/>
<path opacity="0.5" d="M134.418 56.4155H129.671C130.121 56.437 130.57 56.3669 130.992 56.2097C131.413 56.0524 131.799 55.8112 132.124 55.5006C132.45 55.19 132.71 54.8166 132.887 54.4028C133.064 53.9891 133.155 53.5437 133.155 53.0936C133.155 52.6435 133.064 52.1981 132.887 51.7844C132.71 51.3707 132.45 50.9972 132.124 50.6866C131.799 50.376 131.413 50.1348 130.992 49.9776C130.57 49.8203 130.121 49.7503 129.671 49.7717H91.2142C90.3606 49.8125 89.5554 50.1802 88.9657 50.7987C88.376 51.4173 88.047 52.239 88.047 53.0936C88.047 53.9482 88.376 54.77 88.9657 55.3885C89.5554 56.007 90.3606 56.3748 91.2142 56.4155H95.9608C95.1072 56.4562 94.302 56.824 93.7123 57.4425C93.1226 58.061 92.7936 58.8828 92.7936 59.7374C92.7936 60.592 93.1226 61.4138 93.7123 62.0323C94.302 62.6508 95.1072 63.0186 95.9608 63.0593H89.317C88.4634 63.1 87.6582 63.4678 87.0685 64.0863C86.4788 64.7048 86.1498 65.5266 86.1498 66.3812C86.1498 67.2358 86.4788 68.0576 87.0685 68.6761C87.6582 69.2946 88.4634 69.6624 89.317 69.7031H127.774C128.223 69.7245 128.673 69.6545 129.094 69.4973C129.516 69.34 129.902 69.0988 130.227 68.7882C130.553 68.4776 130.812 68.1041 130.99 67.6904C131.167 67.2767 131.258 66.8313 131.258 66.3812C131.258 65.9311 131.167 65.4857 130.99 65.072C130.812 64.6582 130.553 64.2848 130.227 63.9742C129.902 63.6636 129.516 63.4224 129.094 63.2651C128.673 63.1079 128.223 63.0379 127.774 63.0593H134.418C135.271 63.0186 136.076 62.6508 136.666 62.0323C137.256 61.4138 137.585 60.592 137.585 59.7374C137.585 58.8828 137.256 58.061 136.666 57.4425C136.076 56.824 135.271 56.4562 134.418 56.4155V56.4155Z" fill="#DEE3F3"/>
</g>
<defs>
<linearGradient id="paint0_linear" x1="348.062" y1="410.993" x2="348.062" y2="98.0772" gradientUnits="userSpaceOnUse">
<stop stop-color="#808080" stop-opacity="0.25"/>
<stop offset="0.54" stop-color="#808080" stop-opacity="0.12"/>
<stop offset="1" stop-color="#808080" stop-opacity="0.1"/>
</linearGradient>
<linearGradient id="paint1_linear" x1="289.39" y1="357.784" x2="289.39" y2="357.748" gradientUnits="userSpaceOnUse">
<stop stop-color="#808080" stop-opacity="0.25"/>
<stop offset="0.54" stop-color="#808080" stop-opacity="0.12"/>
<stop offset="1" stop-color="#808080" stop-opacity="0.1"/>
</linearGradient>
<linearGradient id="paint2_linear" x1="48672.4" y1="152829" x2="48672.4" y2="68520.6" gradientUnits="userSpaceOnUse">
<stop stop-color="#808080" stop-opacity="0.25"/>
<stop offset="0.54" stop-color="#808080" stop-opacity="0.12"/>
<stop offset="1" stop-color="#808080" stop-opacity="0.1"/>
</linearGradient>
<linearGradient id="paint3_linear" x1="137110" y1="185258" x2="137110" y2="60047.6" gradientUnits="userSpaceOnUse">
<stop stop-color="#808080" stop-opacity="0.25"/>
<stop offset="0.54" stop-color="#808080" stop-opacity="0.12"/>
<stop offset="1" stop-color="#808080" stop-opacity="0.1"/>
</linearGradient>
<clipPath id="clip0">
<rect width="717.892" height="500" fill="white"/>
</clipPath>
</defs>
</svg>
